<svg xmlns="http://www.w3.org/2000/svg" version="1.1" xmlns:xlink="http://www.w3.org/1999/xlink" xmlns:svgjs="http://svgjs.com/svgjs" width="1440" height="560" preserveAspectRatio="none" viewBox="0 0 1440 560"><g mask="url(&quot;#SvgjsMask1076&quot;)" fill="none"><path d="M-101.57 354.01L-101.57 354.01" stroke="rgba(176, 187, 210, 1)" stroke-width="1.5"></path><path d="M-101.57 354.01L88.25 379.32" stroke="rgba(176, 187, 210, 1)" stroke-width="1.5"></path><path d="M-101.57 354.01L-93.38 560.89" stroke="rgba(176, 187, 210, 1)" stroke-width="1.5"></path><path d="M-101.57 354.01L56.26 495.36" stroke="rgba(176, 187, 210, 1)" stroke-width="1.5"></path><path d="M-93.38 560.89L-93.38 560.89" stroke="rgba(176, 187, 210, 1)" stroke-width="1.5"></path><path d="M-93.38 560.89L-99.95 683.22" stroke="rgba(176, 187, 210, 1)" stroke-width="1.5"></path><path d="M-93.38 560.89L56.26 495.36" stroke="rgba(176, 187, 210, 1)" stroke-width="1.5"></path><path d="M-99.95 683.22L-99.95 683.22" stroke="rgba(176, 187, 210, 1)" stroke-width="1.5"></path><path d="M-99.95 683.22L56.26 495.36" stroke="rgba(176, 187, 210, 1)" stroke-width="1.5"></path><path d="M-99.95 683.22L-101.57 354.01" stroke="rgba(176, 187, 210, 1)" stroke-width="1.5"></path><path d="M-99.95 683.22L229.59 652.92" stroke="rgba(176, 187, 210, 1)" stroke-width="1.5"></path><path d="M-99.95 683.22L195.81 530.66" stroke="rgba(176, 187, 210, 1)" stroke-width="1.5"></path><path d="M88.25 379.32L88.25 379.32" stroke="rgba(176, 187, 210, 1)" stroke-width="1.5"></path><path d="M88.25 379.32L195.05 384.59" stroke="rgba(176, 187, 210, 1)" stroke-width="1.5"></path><path d="M88.25 379.32L56.26 495.36" stroke="rgba(176, 187, 210, 1)" stroke-width="1.5"></path><path d="M88.25 379.32L195.81 530.66" stroke="rgba(176, 187, 210, 1)" stroke-width="1.5"></path><path d="M88.25 379.32L-93.38 560.89" stroke="rgba(176, 187, 210, 1)" stroke-width="1.5"></path><path d="M56.26 495.36L56.26 495.36" stroke="rgba(176, 187, 210, 1)" stroke-width="1.5"></path><path d="M56.26 495.36L195.81 530.66" stroke="rgba(176, 187, 210, 1)" stroke-width="1.5"></path><path d="M56.26 495.36L195.05 384.59" stroke="rgba(176, 187, 210, 1)" stroke-width="1.5"></path><path d="M195.05 384.59L195.05 384.59" stroke="rgba(176, 187, 210, 1)" stroke-width="1.5"></path><path d="M195.05 384.59L195.81 530.66" stroke="rgba(176, 187, 210, 1)" stroke-width="1.5"></path><path d="M195.81 530.66L195.81 530.66" stroke="rgba(176, 187, 210, 1)" stroke-width="1.5"></path><path d="M195.81 530.66L229.59 652.92" stroke="rgba(176, 187, 210, 1)" stroke-width="1.5"></path><path d="M195.81 530.66L356.38 546.88" stroke="rgba(176, 187, 210, 1)" stroke-width="1.5"></path><path d="M195.81 530.66L385.19 707.17" stroke="rgba(176, 187, 210, 1)" stroke-width="1.5"></path><path d="M229.59 652.92L229.59 652.92" stroke="rgba(176, 187, 210, 1)" stroke-width="1.5"></path><path d="M229.59 652.92L385.19 707.17" stroke="rgba(176, 187, 210, 1)" stroke-width="1.5"></path><path d="M229.59 652.92L356.38 546.88" stroke="rgba(176, 187, 210, 1)" stroke-width="1.5"></path><path d="M229.59 652.92L56.26 495.36" stroke="rgba(176, 187, 210, 1)" stroke-width="1.5"></path><path d="M412.36 367.1L412.36 367.1" stroke="rgba(176, 187, 210, 1)" stroke-width="1.5"></path><path d="M412.36 367.1L490.81 351.62" stroke="rgba(176, 187, 210, 1)" stroke-width="1.5"></path><path d="M412.36 367.1L356.38 546.88" stroke="rgba(176, 187, 210, 1)" stroke-width="1.5"></path><path d="M412.36 367.1L195.05 384.59" stroke="rgba(176, 187, 210, 1)" stroke-width="1.5"></path><path d="M356.38 546.88L356.38 546.88" stroke="rgba(176, 187, 210, 1)" stroke-width="1.5"></path><path d="M356.38 546.88L385.19 707.17" stroke="rgba(176, 187, 210, 1)" stroke-width="1.5"></path><path d="M356.38 546.88L554.1 533.48" stroke="rgba(176, 187, 210, 1)" stroke-width="1.5"></path><path d="M385.19 707.17L385.19 707.17" stroke="rgba(176, 187, 210, 1)" stroke-width="1.5"></path><path d="M385.19 707.17L559.23 667.96" stroke="rgba(176, 187, 210, 1)" stroke-width="1.5"></path><path d="M490.81 351.62L490.81 351.62" stroke="rgba(176, 187, 210, 1)" stroke-width="1.5"></path><path d="M554.1 533.48L554.1 533.48" stroke="rgba(176, 187, 210, 1)" stroke-width="1.5"></path><path d="M554.1 533.48L559.23 667.96" stroke="rgba(176, 187, 210, 1)" stroke-width="1.5"></path><path d="M554.1 533.48L706.5 516.73" stroke="rgba(176, 187, 210, 1)" stroke-width="1.5"></path><path d="M554.1 533.48L641.26 703" stroke="rgba(176, 187, 210, 1)" stroke-width="1.5"></path><path d="M554.1 533.48L490.81 351.62" stroke="rgba(176, 187, 210, 1)" stroke-width="1.5"></path><path d="M559.23 667.96L559.23 667.96" stroke="rgba(176, 187, 210, 1)" stroke-width="1.5"></path><path d="M559.23 667.96L641.26 703" stroke="rgba(176, 187, 210, 1)" stroke-width="1.5"></path><path d="M559.23 667.96L706.5 516.73" stroke="rgba(176, 187, 210, 1)" stroke-width="1.5"></path><path d="M559.23 667.96L356.38 546.88" stroke="rgba(176, 187, 210, 1)" stroke-width="1.5"></path><path d="M559.23 667.96L836.54 695.71" stroke="rgba(176, 187, 210, 1)" stroke-width="1.5"></path><path d="M708.08 246.99L708.08 246.99" stroke="rgba(176, 187, 210, 1)" stroke-width="1.5"></path><path d="M708.08 246.99L790.85 233.79" stroke="rgba(176, 187, 210, 1)" stroke-width="1.5"></path><path d="M708.08 246.99L678.35 347.23" stroke="rgba(176, 187, 210, 1)" stroke-width="1.5"></path><path d="M708.08 246.99L850.04 371.15" stroke="rgba(176, 187, 210, 1)" stroke-width="1.5"></path><path d="M678.35 347.23L678.35 347.23" stroke="rgba(176, 187, 210, 1)" stroke-width="1.5"></path><path d="M678.35 347.23L790.85 233.79" stroke="rgba(176, 187, 210, 1)" stroke-width="1.5"></path><path d="M706.5 516.73L706.5 516.73" stroke="rgba(176, 187, 210, 1)" stroke-width="1.5"></path><path d="M706.5 516.73L830.68 522.74" stroke="rgba(176, 187, 210, 1)" stroke-width="1.5"></path><path d="M706.5 516.73L678.35 347.23" stroke="rgba(176, 187, 210, 1)" stroke-width="1.5"></path><path d="M706.5 516.73L641.26 703" stroke="rgba(176, 187, 210, 1)" stroke-width="1.5"></path><path d="M641.26 703L641.26 703" stroke="rgba(176, 187, 210, 1)" stroke-width="1.5"></path><path d="M641.26 703L836.54 695.71" stroke="rgba(176, 187, 210, 1)" stroke-width="1.5"></path><path d="M790.85 233.79L790.85 233.79" stroke="rgba(176, 187, 210, 1)" stroke-width="1.5"></path><path d="M790.85 233.79L850.04 371.15" stroke="rgba(176, 187, 210, 1)" stroke-width="1.5"></path><path d="M790.85 233.79L954.16 244.89" stroke="rgba(176, 187, 210, 1)" stroke-width="1.5"></path><path d="M850.04 371.15L850.04 371.15" stroke="rgba(176, 187, 210, 1)" stroke-width="1.5"></path><path d="M850.04 371.15L830.68 522.74" stroke="rgba(176, 187, 210, 1)" stroke-width="1.5"></path><path d="M850.04 371.15L1008.61 402.83" stroke="rgba(176, 187, 210, 1)" stroke-width="1.5"></path><path d="M830.68 522.74L830.68 522.74" stroke="rgba(176, 187, 210, 1)" stroke-width="1.5"></path><path d="M830.68 522.74L981.76 528.15" stroke="rgba(176, 187, 210, 1)" stroke-width="1.5"></path><path d="M830.68 522.74L836.54 695.71" stroke="rgba(176, 187, 210, 1)" stroke-width="1.5"></path><path d="M830.68 522.74L966.41 687.74" stroke="rgba(176, 187, 210, 1)" stroke-width="1.5"></path><path d="M830.68 522.74L1008.61 402.83" stroke="rgba(176, 187, 210, 1)" stroke-width="1.5"></path><path d="M836.54 695.71L836.54 695.71" stroke="rgba(176, 187, 210, 1)" stroke-width="1.5"></path><path d="M836.54 695.71L966.41 687.74" stroke="rgba(176, 187, 210, 1)" stroke-width="1.5"></path><path d="M836.54 695.71L706.5 516.73" stroke="rgba(176, 187, 210, 1)" stroke-width="1.5"></path><path d="M947.28 -45.42L947.28 -45.42" stroke="rgba(176, 187, 210, 1)" stroke-width="1.5"></path><path d="M947.28 -45.42L986.33 65.23" stroke="rgba(176, 187, 210, 1)" stroke-width="1.5"></path><path d="M986.33 65.23L986.33 65.23" stroke="rgba(176, 187, 210, 1)" stroke-width="1.5"></path><path d="M986.33 65.23L1126.65 49.33" stroke="rgba(176, 187, 210, 1)" stroke-width="1.5"></path><path d="M986.33 65.23L954.16 244.89" stroke="rgba(176, 187, 210, 1)" stroke-width="1.5"></path><path d="M954.16 244.89L954.16 244.89" stroke="rgba(176, 187, 210, 1)" stroke-width="1.5"></path><path d="M954.16 244.89L850.04 371.15" stroke="rgba(176, 187, 210, 1)" stroke-width="1.5"></path><path d="M1008.61 402.83L1008.61 402.83" stroke="rgba(176, 187, 210, 1)" stroke-width="1.5"></path><path d="M1008.61 402.83L981.76 528.15" stroke="rgba(176, 187, 210, 1)" stroke-width="1.5"></path><path d="M1008.61 402.83L954.16 244.89" stroke="rgba(176, 187, 210, 1)" stroke-width="1.5"></path><path d="M981.76 528.15L981.76 528.15" stroke="rgba(176, 187, 210, 1)" stroke-width="1.5"></path><path d="M981.76 528.15L1094.71 641.42" stroke="rgba(176, 187, 210, 1)" stroke-width="1.5"></path><path d="M981.76 528.15L966.41 687.74" stroke="rgba(176, 187, 210, 1)" stroke-width="1.5"></path><path d="M981.76 528.15L1160.86 553.69" stroke="rgba(176, 187, 210, 1)" stroke-width="1.5"></path><path d="M981.76 528.15L850.04 371.15" stroke="rgba(176, 187, 210, 1)" stroke-width="1.5"></path><path d="M966.41 687.74L966.41 687.74" stroke="rgba(176, 187, 210, 1)" stroke-width="1.5"></path><path d="M966.41 687.74L1094.71 641.42" stroke="rgba(176, 187, 210, 1)" stroke-width="1.5"></path><path d="M1099.73 -95.99L1099.73 -95.99" stroke="rgba(176, 187, 210, 1)" stroke-width="1.5"></path><path d="M1099.73 -95.99L1126.65 49.33" stroke="rgba(176, 187, 210, 1)" stroke-width="1.5"></path><path d="M1099.73 -95.99L947.28 -45.42" stroke="rgba(176, 187, 210, 1)" stroke-width="1.5"></path><path d="M1099.73 -95.99L986.33 65.23" stroke="rgba(176, 187, 210, 1)" stroke-width="1.5"></path><path d="M1099.73 -95.99L1306.88 -74.47" stroke="rgba(176, 187, 210, 1)" stroke-width="1.5"></path><path d="M1099.73 -95.99L1268.74 105.97" stroke="rgba(176, 187, 210, 1)" stroke-width="1.5"></path><path d="M1126.65 49.33L1126.65 49.33" stroke="rgba(176, 187, 210, 1)" stroke-width="1.5"></path><path d="M1126.65 49.33L1130.49 201.92" stroke="rgba(176, 187, 210, 1)" stroke-width="1.5"></path><path d="M1126.65 49.33L1268.74 105.97" stroke="rgba(176, 187, 210, 1)" stroke-width="1.5"></path><path d="M1130.49 201.92L1130.49 201.92" stroke="rgba(176, 187, 210, 1)" stroke-width="1.5"></path><path d="M1130.49 201.92L1257.66 221.56" stroke="rgba(176, 187, 210, 1)" stroke-width="1.5"></path><path d="M1160.86 553.69L1160.86 553.69" stroke="rgba(176, 187, 210, 1)" stroke-width="1.5"></path><path d="M1160.86 553.69L1094.71 641.42" stroke="rgba(176, 187, 210, 1)" stroke-width="1.5"></path><path d="M1160.86 553.69L1276.1 517.52" stroke="rgba(176, 187, 210, 1)" stroke-width="1.5"></path><path d="M1160.86 553.69L1298.62 692.46" stroke="rgba(176, 187, 210, 1)" stroke-width="1.5"></path><path d="M1160.86 553.69L1266.88 385.14" stroke="rgba(176, 187, 210, 1)" stroke-width="1.5"></path><path d="M1094.71 641.42L1094.71 641.42" stroke="rgba(176, 187, 210, 1)" stroke-width="1.5"></path><path d="M1094.71 641.42L1298.62 692.46" stroke="rgba(176, 187, 210, 1)" stroke-width="1.5"></path><path d="M1306.88 -74.47L1306.88 -74.47" stroke="rgba(176, 187, 210, 1)" stroke-width="1.5"></path><path d="M1306.88 -74.47L1422.41 -40.2" stroke="rgba(176, 187, 210, 1)" stroke-width="1.5"></path><path d="M1306.88 -74.47L1268.74 105.97" stroke="rgba(176, 187, 210, 1)" stroke-width="1.5"></path><path d="M1268.74 105.97L1268.74 105.97" stroke="rgba(176, 187, 210, 1)" stroke-width="1.5"></path><path d="M1268.74 105.97L1257.66 221.56" stroke="rgba(176, 187, 210, 1)" stroke-width="1.5"></path><path d="M1268.74 105.97L1402 94.09" stroke="rgba(176, 187, 210, 1)" stroke-width="1.5"></path><path d="M1268.74 105.97L1130.49 201.92" stroke="rgba(176, 187, 210, 1)" stroke-width="1.5"></path><path d="M1257.66 221.56L1257.66 221.56" stroke="rgba(176, 187, 210, 1)" stroke-width="1.5"></path><path d="M1266.88 385.14L1266.88 385.14" stroke="rgba(176, 187, 210, 1)" stroke-width="1.5"></path><path d="M1266.88 385.14L1276.1 517.52" stroke="rgba(176, 187, 210, 1)" stroke-width="1.5"></path><path d="M1266.88 385.14L1257.66 221.56" stroke="rgba(176, 187, 210, 1)" stroke-width="1.5"></path><path d="M1266.88 385.14L1430.94 361.44" stroke="rgba(176, 187, 210, 1)" stroke-width="1.5"></path><path d="M1266.88 385.14L1413 214.86" stroke="rgba(176, 187, 210, 1)" stroke-width="1.5"></path><path d="M1276.1 517.52L1276.1 517.52" stroke="rgba(176, 187, 210, 1)" stroke-width="1.5"></path><path d="M1298.62 692.46L1298.62 692.46" stroke="rgba(176, 187, 210, 1)" stroke-width="1.5"></path><path d="M1298.62 692.46L1429.98 706.35" stroke="rgba(176, 187, 210, 1)" stroke-width="1.5"></path><path d="M1298.62 692.46L1276.1 517.52" stroke="rgba(176, 187, 210, 1)" stroke-width="1.5"></path><path d="M1422.41 -40.2L1422.41 -40.2" stroke="rgba(176, 187, 210, 1)" stroke-width="1.5"></path><path d="M1422.41 -40.2L1402 94.09" stroke="rgba(176, 187, 210, 1)" stroke-width="1.5"></path><path d="M1402 94.09L1402 94.09" stroke="rgba(176, 187, 210, 1)" stroke-width="1.5"></path><path d="M1402 94.09L1413 214.86" stroke="rgba(176, 187, 210, 1)" stroke-width="1.5"></path><path d="M1402 94.09L1555.49 64.88" stroke="rgba(176, 187, 210, 1)" stroke-width="1.5"></path><path d="M1402 94.09L1257.66 221.56" stroke="rgba(176, 187, 210, 1)" stroke-width="1.5"></path><path d="M1402 94.09L1306.88 -74.47" stroke="rgba(176, 187, 210, 1)" stroke-width="1.5"></path><path d="M1413 214.86L1413 214.86" stroke="rgba(176, 187, 210, 1)" stroke-width="1.5"></path><path d="M1413 214.86L1430.94 361.44" stroke="rgba(176, 187, 210, 1)" stroke-width="1.5"></path><path d="M1413 214.86L1257.66 221.56" stroke="rgba(176, 187, 210, 1)" stroke-width="1.5"></path><path d="M1413 214.86L1569.06 201.41" stroke="rgba(176, 187, 210, 1)" stroke-width="1.5"></path><path d="M1430.94 361.44L1430.94 361.44" stroke="rgba(176, 187, 210, 1)" stroke-width="1.5"></path><path d="M1430.94 361.44L1459.6 509.84" stroke="rgba(176, 187, 210, 1)" stroke-width="1.5"></path><path d="M1430.94 361.44L1585.86 393.81" stroke="rgba(176, 187, 210, 1)" stroke-width="1.5"></path><path d="M1430.94 361.44L1569.06 201.41" stroke="rgba(176, 187, 210, 1)" stroke-width="1.5"></path><path d="M1430.94 361.44L1276.1 517.52" stroke="rgba(176, 187, 210, 1)" stroke-width="1.5"></path><path d="M1459.6 509.84L1459.6 509.84" stroke="rgba(176, 187, 210, 1)" stroke-width="1.5"></path><path d="M1459.6 509.84L1553.46 560.47" stroke="rgba(176, 187, 210, 1)" stroke-width="1.5"></path><path d="M1459.6 509.84L1585.86 393.81" stroke="rgba(176, 187, 210, 1)" stroke-width="1.5"></path><path d="M1459.6 509.84L1276.1 517.52" stroke="rgba(176, 187, 210, 1)" stroke-width="1.5"></path><path d="M1429.98 706.35L1429.98 706.35" stroke="rgba(176, 187, 210, 1)" stroke-width="1.5"></path><path d="M1429.98 706.35L1552.23 682.51" stroke="rgba(176, 187, 210, 1)" stroke-width="1.5"></path><path d="M1429.98 706.35L1553.46 560.47" stroke="rgba(176, 187, 210, 1)" stroke-width="1.5"></path><path d="M1429.98 706.35L1459.6 509.84" stroke="rgba(176, 187, 210, 1)" stroke-width="1.5"></path><path d="M1568.95 -45.04L1568.95 -45.04" stroke="rgba(176, 187, 210, 1)" stroke-width="1.5"></path><path d="M1568.95 -45.04L1555.49 64.88" stroke="rgba(176, 187, 210, 1)" stroke-width="1.5"></path><path d="M1568.95 -45.04L1422.41 -40.2" stroke="rgba(176, 187, 210, 1)" stroke-width="1.5"></path><path d="M1568.95 -45.04L1402 94.09" stroke="rgba(176, 187, 210, 1)" stroke-width="1.5"></path><path d="M1568.95 -45.04L1569.06 201.41" stroke="rgba(176, 187, 210, 1)" stroke-width="1.5"></path><path d="M1555.49 64.88L1555.49 64.88" stroke="rgba(176, 187, 210, 1)" stroke-width="1.5"></path><path d="M1555.49 64.88L1569.06 201.41" stroke="rgba(176, 187, 210, 1)" stroke-width="1.5"></path><path d="M1555.49 64.88L1422.41 -40.2" stroke="rgba(176, 187, 210, 1)" stroke-width="1.5"></path><path d="M1569.06 201.41L1569.06 201.41" stroke="rgba(176, 187, 210, 1)" stroke-width="1.5"></path><path d="M1569.06 201.41L1585.86 393.81" stroke="rgba(176, 187, 210, 1)" stroke-width="1.5"></path><path d="M1585.86 393.81L1585.86 393.81" stroke="rgba(176, 187, 210, 1)" stroke-width="1.5"></path><path d="M1585.86 393.81L1553.46 560.47" stroke="rgba(176, 187, 210, 1)" stroke-width="1.5"></path><path d="M1585.86 393.81L1413 214.86" stroke="rgba(176, 187, 210, 1)" stroke-width="1.5"></path><path d="M1585.86 393.81L1552.23 682.51" stroke="rgba(176, 187, 210, 1)" stroke-width="1.5"></path><path d="M1553.46 560.47L1553.46 560.47" stroke="rgba(176, 187, 210, 1)" stroke-width="1.5"></path><path d="M1553.46 560.47L1552.23 682.51" stroke="rgba(176, 187, 210, 1)" stroke-width="1.5"></path><path d="M1552.23 682.51L1552.23 682.51" stroke="rgba(176, 187, 210, 1)" stroke-width="1.5"></path><path d="M1552.23 682.51L1459.6 509.84" stroke="rgba(176, 187, 210, 1)" stroke-width="1.5"></path><path d="M1552.23 682.51L1298.62 692.46" stroke="rgba(176, 187, 210, 1)" stroke-width="1.5"></path><circle r="5" cx="-101.57" cy="354.01" fill="rgba(176, 187, 210, 1)"></circle><circle r="5" cx="-93.38" cy="560.89" fill="rgba(176, 187, 210, 1)"></circle><circle r="5" cx="-99.95" cy="683.22" fill="rgba(176, 187, 210, 1)"></circle><circle r="5" cx="88.25" cy="379.32" fill="rgba(176, 187, 210, 1)"></circle><circle r="5" cx="56.26" cy="495.36" fill="rgba(176, 187, 210, 1)"></circle><circle r="5" cx="195.05" cy="384.59" fill="rgba(176, 187, 210, 1)"></circle><circle r="5" cx="195.81" cy="530.66" fill="rgba(176, 187, 210, 1)"></circle><circle r="5" cx="229.59" cy="652.92" fill="rgba(176, 187, 210, 1)"></circle><circle r="5" cx="412.36" cy="367.1" fill="rgba(176, 187, 210, 1)"></circle><circle r="5" cx="356.38" cy="546.88" fill="rgba(176, 187, 210, 1)"></circle><circle r="5" cx="385.19" cy="707.17" fill="rgba(176, 187, 210, 1)"></circle><circle r="5" cx="490.81" cy="351.62" fill="rgba(176, 187, 210, 1)"></circle><circle r="5" cx="554.1" cy="533.48" fill="rgba(176, 187, 210, 1)"></circle><circle r="5" cx="559.23" cy="667.96" fill="rgba(176, 187, 210, 1)"></circle><circle r="5" cx="708.08" cy="246.99" fill="rgba(176, 187, 210, 1)"></circle><circle r="5" cx="678.35" cy="347.23" fill="rgba(176, 187, 210, 1)"></circle><circle r="5" cx="706.5" cy="516.73" fill="rgba(176, 187, 210, 1)"></circle><circle r="5" cx="641.26" cy="703" fill="rgba(176, 187, 210, 1)"></circle><circle r="5" cx="790.85" cy="233.79" fill="rgba(176, 187, 210, 1)"></circle><circle r="5" cx="850.04" cy="371.15" fill="rgba(176, 187, 210, 1)"></circle><circle r="5" cx="830.68" cy="522.74" fill="rgba(176, 187, 210, 1)"></circle><circle r="5" cx="836.54" cy="695.71" fill="rgba(176, 187, 210, 1)"></circle><circle r="5" cx="947.28" cy="-45.42" fill="rgba(176, 187, 210, 1)"></circle><circle r="5" cx="986.33" cy="65.23" fill="rgba(176, 187, 210, 1)"></circle><circle r="5" cx="954.16" cy="244.89" fill="rgba(176, 187, 210, 1)"></circle><circle r="5" cx="1008.61" cy="402.83" fill="rgba(176, 187, 210, 1)"></circle><circle r="5" cx="981.76" cy="528.15" fill="rgba(176, 187, 210, 1)"></circle><circle r="5" cx="966.41" cy="687.74" fill="rgba(176, 187, 210, 1)"></circle><circle r="5" cx="1099.73" cy="-95.99" fill="rgba(176, 187, 210, 1)"></circle><circle r="5" cx="1126.65" cy="49.33" fill="rgba(176, 187, 210, 1)"></circle><circle r="5" cx="1130.49" cy="201.92" fill="rgba(176, 187, 210, 1)"></circle><circle r="5" cx="1160.86" cy="553.69" fill="rgba(176, 187, 210, 1)"></circle><circle r="5" cx="1094.71" cy="641.42" fill="rgba(176, 187, 210, 1)"></circle><circle r="5" cx="1306.88" cy="-74.47" fill="rgba(176, 187, 210, 1)"></circle><circle r="5" cx="1268.74" cy="105.97" fill="rgba(176, 187, 210, 1)"></circle><circle r="5" cx="1257.66" cy="221.56" fill="rgba(176, 187, 210, 1)"></circle><circle r="5" cx="1266.88" cy="385.14" fill="rgba(176, 187, 210, 1)"></circle><circle r="5" cx="1276.1" cy="517.52" fill="rgba(176, 187, 210, 1)"></circle><circle r="5" cx="1298.62" cy="692.46" fill="rgba(176, 187, 210, 1)"></circle><circle r="5" cx="1422.41" cy="-40.2" fill="rgba(176, 187, 210, 1)"></circle><circle r="5" cx="1402" cy="94.09" fill="rgba(176, 187, 210, 1)"></circle><circle r="5" cx="1413" cy="214.86" fill="rgba(176, 187, 210, 1)"></circle><circle r="5" cx="1430.94" cy="361.44" fill="rgba(176, 187, 210, 1)"></circle><circle r="5" cx="1459.6" cy="509.84" fill="rgba(176, 187, 210, 1)"></circle><circle r="5" cx="1429.98" cy="706.35" fill="rgba(176, 187, 210, 1)"></circle><circle r="5" cx="1568.95" cy="-45.04" fill="rgba(176, 187, 210, 1)"></circle><circle r="5" cx="1555.49" cy="64.88" fill="rgba(176, 187, 210, 1)"></circle><circle r="5" cx="1569.06" cy="201.41" fill="rgba(176, 187, 210, 1)"></circle><circle r="5" cx="1585.86" cy="393.81" fill="rgba(176, 187, 210, 1)"></circle><circle r="5" cx="1553.46" cy="560.47" fill="rgba(176, 187, 210, 1)"></circle><circle r="5" cx="1552.23" cy="682.51" fill="rgba(176, 187, 210, 1)"></circle><path d="M-59.02 493.28L-59.02 493.28" stroke="hsl(225, 7.1%, 100%)" stroke-width="1.5"></path><path d="M-59.02 493.28L-53.18 648.43" stroke="hsl(225, 7.1%, 100%)" stroke-width="1.5"></path><path d="M-59.02 493.28L111.49 509.62" stroke="hsl(225, 7.1%, 100%)" stroke-width="1.5"></path><path d="M-59.02 493.28L55.47 701.94" stroke="hsl(225, 7.1%, 100%)" stroke-width="1.5"></path><path d="M-59.02 493.28L217.63 560.39" stroke="hsl(225, 7.1%, 100%)" stroke-width="1.5"></path><path d="M-59.02 493.28L192.01 643.8" stroke="hsl(225, 7.1%, 100%)" stroke-width="1.5"></path><path d="M378.18 683.49L378.18 683.49" stroke="hsl(225, 7.1%, 100%)" stroke-width="1.5"></path><path d="M378.18 683.49L355.57 551.17" stroke="hsl(225, 7.1%, 100%)" stroke-width="1.5"></path><path d="M378.18 683.49L547.39 704.46" stroke="hsl(225, 7.1%, 100%)" stroke-width="1.5"></path><path d="M378.18 683.49L491.33 555.64" stroke="hsl(225, 7.1%, 100%)" stroke-width="1.5"></path><path d="M991.4 243.33L991.4 243.33" stroke="hsl(225, 7.1%, 100%)" stroke-width="1.5"></path><path d="M991.4 243.33L984.26 364.16" stroke="hsl(225, 7.1%, 100%)" stroke-width="1.5"></path><path d="M991.4 243.33L1143.99 193.48" stroke="hsl(225, 7.1%, 100%)" stroke-width="1.5"></path><path d="M991.4 243.33L1128.65 347.05" stroke="hsl(225, 7.1%, 100%)" stroke-width="1.5"></path><path d="M984.26 364.16L984.26 364.16" stroke="hsl(225, 7.1%, 100%)" stroke-width="1.5"></path><path d="M984.26 364.16L1128.65 347.05" stroke="hsl(225, 7.1%, 100%)" stroke-width="1.5"></path><path d="M984.26 364.16L817.12 345.04" stroke="hsl(225, 7.1%, 100%)" stroke-width="1.5"></path><path d="M984.26 364.16L1113.35 492.67" stroke="hsl(225, 7.1%, 100%)" stroke-width="1.5"></path><path d="M984.26 364.16L990.08 553.39" stroke="hsl(225, 7.1%, 100%)" stroke-width="1.5"></path><path d="M1305.15 -82.29L1305.15 -82.29" stroke="hsl(225, 7.1%, 100%)" stroke-width="1.5"></path><path d="M1305.15 -82.29L1395.65 -111.12" stroke="hsl(225, 7.1%, 100%)" stroke-width="1.5"></path><path d="M1305.15 -82.29L1294.38 73.85" stroke="hsl(225, 7.1%, 100%)" stroke-width="1.5"></path><path d="M1305.15 -82.29L1432.5 93" stroke="hsl(225, 7.1%, 100%)" stroke-width="1.5"></path><path d="M1305.15 -82.29L1545.36 -43.76" stroke="hsl(225, 7.1%, 100%)" stroke-width="1.5"></path><path d="M1271.83 504.72L1271.83 504.72" stroke="hsl(225, 7.1%, 100%)" stroke-width="1.5"></path><path d="M1271.83 504.72L1258.87 361.5" stroke="hsl(225, 7.1%, 100%)" stroke-width="1.5"></path><path d="M1271.83 504.72L1429.03 518.31" stroke="hsl(225, 7.1%, 100%)" stroke-width="1.5"></path><path d="M1271.83 504.72L1113.35 492.67" stroke="hsl(225, 7.1%, 100%)" stroke-width="1.5"></path><path d="M1271.83 504.72L1245.4 679.15" stroke="hsl(225, 7.1%, 100%)" stroke-width="1.5"></path><path d="M1395.65 -111.12L1395.65 -111.12" stroke="hsl(225, 7.1%, 100%)" stroke-width="1.5"></path><path d="M1395.65 -111.12L1545.36 -43.76" stroke="hsl(225, 7.1%, 100%)" stroke-width="1.5"></path><path d="M1395.65 -111.12L1432.5 93" stroke="hsl(225, 7.1%, 100%)" stroke-width="1.5"></path><path d="M1395.65 -111.12L1294.38 73.85" stroke="hsl(225, 7.1%, 100%)" stroke-width="1.5"></path><path d="M1395.65 -111.12L1586.06 91.35" stroke="hsl(225, 7.1%, 100%)" stroke-width="1.5"></path><path d="M1432.5 93L1432.5 93" stroke="hsl(225, 7.1%, 100%)" stroke-width="1.5"></path><path d="M1432.5 93L1294.38 73.85" stroke="hsl(225, 7.1%, 100%)" stroke-width="1.5"></path><path d="M1432.5 93L1586.06 91.35" stroke="hsl(225, 7.1%, 100%)" stroke-width="1.5"></path><path d="M1432.5 93L1442.76 256.66" stroke="hsl(225, 7.1%, 100%)" stroke-width="1.5"></path><path d="M1439.06 360.21L1439.06 360.21" stroke="hsl(225, 7.1%, 100%)" stroke-width="1.5"></path><path d="M1439.06 360.21L1442.76 256.66" stroke="hsl(225, 7.1%, 100%)" stroke-width="1.5"></path><path d="M1439.06 360.21L1429.03 518.31" stroke="hsl(225, 7.1%, 100%)" stroke-width="1.5"></path><path d="M1439.06 360.21L1596.77 393.11" stroke="hsl(225, 7.1%, 100%)" stroke-width="1.5"></path><path d="M1439.06 360.21L1258.87 361.5" stroke="hsl(225, 7.1%, 100%)" stroke-width="1.5"></path><path d="M1439.06 360.21L1565.2 197.46" stroke="hsl(225, 7.1%, 100%)" stroke-width="1.5"></path><path d="M1439.06 360.21L1561.28 543.38" stroke="hsl(225, 7.1%, 100%)" stroke-width="1.5"></path><path d="M1545.36 -43.76L1545.36 -43.76" stroke="hsl(225, 7.1%, 100%)" stroke-width="1.5"></path><path d="M1545.36 -43.76L1586.06 91.35" stroke="hsl(225, 7.1%, 100%)" stroke-width="1.5"></path><path d="M1545.36 -43.76L1432.5 93" stroke="hsl(225, 7.1%, 100%)" stroke-width="1.5"></path><path d="M1545.36 -43.76L1565.2 197.46" stroke="hsl(225, 7.1%, 100%)" stroke-width="1.5"></path><path d="M1561.28 543.38L1561.28 543.38" stroke="hsl(225, 7.1%, 100%)" stroke-width="1.5"></path><path d="M1561.28 543.38L1552.95 673.26" stroke="hsl(225, 7.1%, 100%)" stroke-width="1.5"></path><path d="M-53.18 648.43L-53.18 648.43" stroke="hsl(225, 7.1%, 100%)" stroke-width="1.5"></path><path d="M-53.18 648.43L55.47 701.94" stroke="hsl(225, 7.1%, 100%)" stroke-width="1.5"></path><path d="M-53.18 648.43L111.49 509.62" stroke="hsl(225, 7.1%, 100%)" stroke-width="1.5"></path><path d="M111.49 509.62L111.49 509.62" stroke="hsl(225, 7.1%, 100%)" stroke-width="1.5"></path><path d="M111.49 509.62L217.63 560.39" stroke="hsl(225, 7.1%, 100%)" stroke-width="1.5"></path><path d="M111.49 509.62L192.01 643.8" stroke="hsl(225, 7.1%, 100%)" stroke-width="1.5"></path><path d="M111.49 509.62L55.47 701.94" stroke="hsl(225, 7.1%, 100%)" stroke-width="1.5"></path><path d="M55.47 701.94L55.47 701.94" stroke="hsl(225, 7.1%, 100%)" stroke-width="1.5"></path><path d="M55.47 701.94L192.01 643.8" stroke="hsl(225, 7.1%, 100%)" stroke-width="1.5"></path><path d="M217.63 560.39L217.63 560.39" stroke="hsl(225, 7.1%, 100%)" stroke-width="1.5"></path><path d="M217.63 560.39L192.01 643.8" stroke="hsl(225, 7.1%, 100%)" stroke-width="1.5"></path><path d="M217.63 560.39L355.57 551.17" stroke="hsl(225, 7.1%, 100%)" stroke-width="1.5"></path><path d="M217.63 560.39L378.18 683.49" stroke="hsl(225, 7.1%, 100%)" stroke-width="1.5"></path><path d="M192.01 643.8L192.01 643.8" stroke="hsl(225, 7.1%, 100%)" stroke-width="1.5"></path><path d="M355.57 551.17L355.57 551.17" stroke="hsl(225, 7.1%, 100%)" stroke-width="1.5"></path><path d="M355.57 551.17L491.33 555.64" stroke="hsl(225, 7.1%, 100%)" stroke-width="1.5"></path><path d="M355.57 551.17L192.01 643.8" stroke="hsl(225, 7.1%, 100%)" stroke-width="1.5"></path><path d="M355.57 551.17L547.39 704.46" stroke="hsl(225, 7.1%, 100%)" stroke-width="1.5"></path><path d="M355.57 551.17L111.49 509.62" stroke="hsl(225, 7.1%, 100%)" stroke-width="1.5"></path><path d="M491.33 555.64L491.33 555.64" stroke="hsl(225, 7.1%, 100%)" stroke-width="1.5"></path><path d="M491.33 555.64L547.39 704.46" stroke="hsl(225, 7.1%, 100%)" stroke-width="1.5"></path><path d="M491.33 555.64L688.66 536.21" stroke="hsl(225, 7.1%, 100%)" stroke-width="1.5"></path><path d="M491.33 555.64L692.55 676.31" stroke="hsl(225, 7.1%, 100%)" stroke-width="1.5"></path><path d="M491.33 555.64L686.61 391.07" stroke="hsl(225, 7.1%, 100%)" stroke-width="1.5"></path><path d="M547.39 704.46L547.39 704.46" stroke="hsl(225, 7.1%, 100%)" stroke-width="1.5"></path><path d="M547.39 704.46L692.55 676.31" stroke="hsl(225, 7.1%, 100%)" stroke-width="1.5"></path><path d="M686.61 391.07L686.61 391.07" stroke="hsl(225, 7.1%, 100%)" stroke-width="1.5"></path><path d="M686.61 391.07L817.12 345.04" stroke="hsl(225, 7.1%, 100%)" stroke-width="1.5"></path><path d="M686.61 391.07L688.66 536.21" stroke="hsl(225, 7.1%, 100%)" stroke-width="1.5"></path><path d="M686.61 391.07L824.36 538.67" stroke="hsl(225, 7.1%, 100%)" stroke-width="1.5"></path><path d="M686.61 391.07L692.55 676.31" stroke="hsl(225, 7.1%, 100%)" stroke-width="1.5"></path><path d="M686.61 391.07L984.26 364.16" stroke="hsl(225, 7.1%, 100%)" stroke-width="1.5"></path><path d="M688.66 536.21L688.66 536.21" stroke="hsl(225, 7.1%, 100%)" stroke-width="1.5"></path><path d="M688.66 536.21L824.36 538.67" stroke="hsl(225, 7.1%, 100%)" stroke-width="1.5"></path><path d="M688.66 536.21L692.55 676.31" stroke="hsl(225, 7.1%, 100%)" stroke-width="1.5"></path><path d="M692.55 676.31L692.55 676.31" stroke="hsl(225, 7.1%, 100%)" stroke-width="1.5"></path><path d="M692.55 676.31L802.06 699.65" stroke="hsl(225, 7.1%, 100%)" stroke-width="1.5"></path><path d="M692.55 676.31L824.36 538.67" stroke="hsl(225, 7.1%, 100%)" stroke-width="1.5"></path><path d="M817.12 345.04L817.12 345.04" stroke="hsl(225, 7.1%, 100%)" stroke-width="1.5"></path><path d="M817.12 345.04L824.36 538.67" stroke="hsl(225, 7.1%, 100%)" stroke-width="1.5"></path><path d="M817.12 345.04L991.4 243.33" stroke="hsl(225, 7.1%, 100%)" stroke-width="1.5"></path><path d="M817.12 345.04L688.66 536.21" stroke="hsl(225, 7.1%, 100%)" stroke-width="1.5"></path><path d="M824.36 538.67L824.36 538.67" stroke="hsl(225, 7.1%, 100%)" stroke-width="1.5"></path><path d="M824.36 538.67L802.06 699.65" stroke="hsl(225, 7.1%, 100%)" stroke-width="1.5"></path><path d="M802.06 699.65L802.06 699.65" stroke="hsl(225, 7.1%, 100%)" stroke-width="1.5"></path><path d="M990.08 553.39L990.08 553.39" stroke="hsl(225, 7.1%, 100%)" stroke-width="1.5"></path><path d="M990.08 553.39L1113.35 492.67" stroke="hsl(225, 7.1%, 100%)" stroke-width="1.5"></path><path d="M990.08 553.39L975.32 698.49" stroke="hsl(225, 7.1%, 100%)" stroke-width="1.5"></path><path d="M990.08 553.39L824.36 538.67" stroke="hsl(225, 7.1%, 100%)" stroke-width="1.5"></path><path d="M990.08 553.39L1128.99 663.06" stroke="hsl(225, 7.1%, 100%)" stroke-width="1.5"></path><path d="M990.08 553.39L802.06 699.65" stroke="hsl(225, 7.1%, 100%)" stroke-width="1.5"></path><path d="M975.32 698.49L975.32 698.49" stroke="hsl(225, 7.1%, 100%)" stroke-width="1.5"></path><path d="M975.32 698.49L1128.99 663.06" stroke="hsl(225, 7.1%, 100%)" stroke-width="1.5"></path><path d="M975.32 698.49L802.06 699.65" stroke="hsl(225, 7.1%, 100%)" stroke-width="1.5"></path><path d="M975.32 698.49L824.36 538.67" stroke="hsl(225, 7.1%, 100%)" stroke-width="1.5"></path><path d="M975.32 698.49L1113.35 492.67" stroke="hsl(225, 7.1%, 100%)" stroke-width="1.5"></path><path d="M1143.99 193.48L1143.99 193.48" stroke="hsl(225, 7.1%, 100%)" stroke-width="1.5"></path><path d="M1143.99 193.48L1260.05 196.08" stroke="hsl(225, 7.1%, 100%)" stroke-width="1.5"></path><path d="M1143.99 193.48L1128.65 347.05" stroke="hsl(225, 7.1%, 100%)" stroke-width="1.5"></path><path d="M1128.65 347.05L1128.65 347.05" stroke="hsl(225, 7.1%, 100%)" stroke-width="1.5"></path><path d="M1128.65 347.05L1258.87 361.5" stroke="hsl(225, 7.1%, 100%)" stroke-width="1.5"></path><path d="M1128.65 347.05L1113.35 492.67" stroke="hsl(225, 7.1%, 100%)" stroke-width="1.5"></path><path d="M1113.35 492.67L1113.35 492.67" stroke="hsl(225, 7.1%, 100%)" stroke-width="1.5"></path><path d="M1113.35 492.67L1128.99 663.06" stroke="hsl(225, 7.1%, 100%)" stroke-width="1.5"></path><path d="M1113.35 492.67L1258.87 361.5" stroke="hsl(225, 7.1%, 100%)" stroke-width="1.5"></path><path d="M1128.99 663.06L1128.99 663.06" stroke="hsl(225, 7.1%, 100%)" stroke-width="1.5"></path><path d="M1128.99 663.06L1245.4 679.15" stroke="hsl(225, 7.1%, 100%)" stroke-width="1.5"></path><path d="M1294.38 73.85L1294.38 73.85" stroke="hsl(225, 7.1%, 100%)" stroke-width="1.5"></path><path d="M1294.38 73.85L1260.05 196.08" stroke="hsl(225, 7.1%, 100%)" stroke-width="1.5"></path><path d="M1260.05 196.08L1260.05 196.08" stroke="hsl(225, 7.1%, 100%)" stroke-width="1.5"></path><path d="M1260.05 196.08L1258.87 361.5" stroke="hsl(225, 7.1%, 100%)" stroke-width="1.5"></path><path d="M1260.05 196.08L1442.76 256.66" stroke="hsl(225, 7.1%, 100%)" stroke-width="1.5"></path><path d="M1258.87 361.5L1258.87 361.5" stroke="hsl(225, 7.1%, 100%)" stroke-width="1.5"></path><path d="M1245.4 679.15L1245.4 679.15" stroke="hsl(225, 7.1%, 100%)" stroke-width="1.5"></path><path d="M1245.4 679.15L1415.04 641.23" stroke="hsl(225, 7.1%, 100%)" stroke-width="1.5"></path><path d="M1245.4 679.15L1113.35 492.67" stroke="hsl(225, 7.1%, 100%)" stroke-width="1.5"></path><path d="M1442.76 256.66L1442.76 256.66" stroke="hsl(225, 7.1%, 100%)" stroke-width="1.5"></path><path d="M1442.76 256.66L1565.2 197.46" stroke="hsl(225, 7.1%, 100%)" stroke-width="1.5"></path><path d="M1442.76 256.66L1596.77 393.11" stroke="hsl(225, 7.1%, 100%)" stroke-width="1.5"></path><path d="M1429.03 518.31L1429.03 518.31" stroke="hsl(225, 7.1%, 100%)" stroke-width="1.5"></path><path d="M1429.03 518.31L1415.04 641.23" stroke="hsl(225, 7.1%, 100%)" stroke-width="1.5"></path><path d="M1429.03 518.31L1561.28 543.38" stroke="hsl(225, 7.1%, 100%)" stroke-width="1.5"></path><path d="M1415.04 641.23L1415.04 641.23" stroke="hsl(225, 7.1%, 100%)" stroke-width="1.5"></path><path d="M1415.04 641.23L1552.95 673.26" stroke="hsl(225, 7.1%, 100%)" stroke-width="1.5"></path><path d="M1586.06 91.35L1586.06 91.35" stroke="hsl(225, 7.1%, 100%)" stroke-width="1.5"></path><path d="M1586.06 91.35L1565.2 197.46" stroke="hsl(225, 7.1%, 100%)" stroke-width="1.5"></path><path d="M1565.2 197.46L1565.2 197.46" stroke="hsl(225, 7.1%, 100%)" stroke-width="1.5"></path><path d="M1565.2 197.46L1432.5 93" stroke="hsl(225, 7.1%, 100%)" stroke-width="1.5"></path><path d="M1596.77 393.11L1596.77 393.11" stroke="hsl(225, 7.1%, 100%)" stroke-width="1.5"></path><path d="M1596.77 393.11L1561.28 543.38" stroke="hsl(225, 7.1%, 100%)" stroke-width="1.5"></path><path d="M1596.77 393.11L1565.2 197.46" stroke="hsl(225, 7.1%, 100%)" stroke-width="1.5"></path><path d="M1596.77 393.11L1429.03 518.31" stroke="hsl(225, 7.1%, 100%)" stroke-width="1.5"></path><path d="M1552.95 673.26L1552.95 673.26" stroke="hsl(225, 7.1%, 100%)" stroke-width="1.5"></path><path d="M1552.95 673.26L1429.03 518.31" stroke="hsl(225, 7.1%, 100%)" stroke-width="1.5"></path><path d="M1552.95 673.26L1596.77 393.11" stroke="hsl(225, 7.1%, 100%)" stroke-width="1.5"></path><path d="M1552.95 673.26L1245.4 679.15" stroke="hsl(225, 7.1%, 100%)" stroke-width="1.5"></path><path d="M1552.95 673.26L1271.83 504.72" stroke="hsl(225, 7.1%, 100%)" stroke-width="1.5"></path><circle r="25" cx="-59.02" cy="493.28" fill="url(#SvgjsRadialGradient1077)"></circle><circle r="25" cx="378.18" cy="683.49" fill="url(#SvgjsRadialGradient1077)"></circle><circle r="25" cx="991.4" cy="243.33" fill="url(#SvgjsRadialGradient1077)"></circle><circle r="25" cx="984.26" cy="364.16" fill="url(#SvgjsRadialGradient1077)"></circle><circle r="25" cx="1305.15" cy="-82.29" fill="url(#SvgjsRadialGradient1077)"></circle><circle r="25" cx="1271.83" cy="504.72" fill="url(#SvgjsRadialGradient1077)"></circle><circle r="25" cx="1395.65" cy="-111.12" fill="url(#SvgjsRadialGradient1077)"></circle><circle r="25" cx="1432.5" cy="93" fill="url(#SvgjsRadialGradient1077)"></circle><circle r="25" cx="1439.06" cy="360.21" fill="url(#SvgjsRadialGradient1077)"></circle><circle r="25" cx="1545.36" cy="-43.76" fill="url(#SvgjsRadialGradient1077)"></circle><circle r="25" cx="1561.28" cy="543.38" fill="url(#SvgjsRadialGradient1077)"></circle><circle r="5" cx="-53.18" cy="648.43" fill="#e1e2e5"></circle><circle r="5" cx="111.49" cy="509.62" fill="#e1e2e5"></circle><circle r="5" cx="55.47" cy="701.94" fill="#e1e2e5"></circle><circle r="5" cx="217.63" cy="560.39" fill="#e1e2e5"></circle><circle r="5" cx="192.01" cy="643.8" fill="#e1e2e5"></circle><circle r="5" cx="355.57" cy="551.17" fill="#e1e2e5"></circle><circle r="5" cx="491.33" cy="555.64" fill="#e1e2e5"></circle><circle r="5" cx="547.39" cy="704.46" fill="#e1e2e5"></circle><circle r="5" cx="686.61" cy="391.07" fill="#e1e2e5"></circle><circle r="5" cx="688.66" cy="536.21" fill="#e1e2e5"></circle><circle r="5" cx="692.55" cy="676.31" fill="#e1e2e5"></circle><circle r="5" cx="817.12" cy="345.04" fill="#e1e2e5"></circle><circle r="5" cx="824.36" cy="538.67" fill="#e1e2e5"></circle><circle r="5" cx="802.06" cy="699.65" fill="#e1e2e5"></circle><circle r="5" cx="990.08" cy="553.39" fill="#e1e2e5"></circle><circle r="5" cx="975.32" cy="698.49" fill="#e1e2e5"></circle><circle r="5" cx="1143.99" cy="193.48" fill="#e1e2e5"></circle><circle r="5" cx="1128.65" cy="347.05" fill="#e1e2e5"></circle><circle r="5" cx="1113.35" cy="492.67" fill="#e1e2e5"></circle><circle r="5" cx="1128.99" cy="663.06" fill="#e1e2e5"></circle><circle r="5" cx="1294.38" cy="73.85" fill="#e1e2e5"></circle><circle r="5" cx="1260.05" cy="196.08" fill="#e1e2e5"></circle><circle r="5" cx="1258.87" cy="361.5" fill="#e1e2e5"></circle><circle r="5" cx="1245.4" cy="679.15" fill="#e1e2e5"></circle><circle r="5" cx="1442.76" cy="256.66" fill="#e1e2e5"></circle><circle r="5" cx="1429.03" cy="518.31" fill="#e1e2e5"></circle><circle r="5" cx="1415.04" cy="641.23" fill="#e1e2e5"></circle><circle r="5" cx="1586.06" cy="91.35" fill="#e1e2e5"></circle><circle r="5" cx="1565.2" cy="197.46" fill="#e1e2e5"></circle><circle r="5" cx="1596.77" cy="393.11" fill="#e1e2e5"></circle><circle r="5" cx="1552.95" cy="673.26" fill="#e1e2e5"></circle></g><defs><mask id="SvgjsMask1076"><rect width="1440" height="560" fill="#ffffff"></rect></mask><radialGradient id="SvgjsRadialGradient1077"><stop stop-color="#ffffff" offset="0.1"></stop><stop stop-color="rgba(195, 197, 203, 1)" offset="0.2"></stop><stop stop-color="rgba(195, 197, 203, 0)" offset="1"></stop></radialGradient></defs></svg>