<?xml version="1.0" encoding="UTF-8" standalone="no"?>
<!DOCTYPE svg PUBLIC "-//W3C//DTD SVG 1.1//EN" "http://www.w3.org/Graphics/SVG/1.1/DTD/svg11.dtd">
<!-- Created with Vectornator (http://vectornator.io/) -->
<svg height="100%" stroke-miterlimit="10" style="fill-rule:nonzero;clip-rule:evenodd;stroke-linecap:round;stroke-linejoin:round;" version="1.1" viewBox="0 0 1440 560" width="100%" xml:space="preserve" xmlns="http://www.w3.org/2000/svg" xmlns:vectornator="http://vectornator.io" xmlns:xlink="http://www.w3.org/1999/xlink">
<defs>
<radialGradient cx="-59.02" cy="493.28" gradientTransform="matrix(1 0 0 1 0 0)" gradientUnits="userSpaceOnUse" id="RadialGradient" r="25">
<stop offset="0.1" stop-color="#ffffff"/>
<stop offset="0.2" stop-color="#c3c5cb"/>
<stop offset="1" stop-color="#c3c5cb" stop-opacity="0"/>
</radialGradient>
<radialGradient cx="378.18" cy="683.49" gradientTransform="matrix(1 0 0 1 0 0)" gradientUnits="userSpaceOnUse" id="RadialGradient_2" r="25">
<stop offset="0.1" stop-color="#ffffff"/>
<stop offset="0.2" stop-color="#c3c5cb"/>
<stop offset="1" stop-color="#c3c5cb" stop-opacity="0"/>
</radialGradient>
<radialGradient cx="991.4" cy="243.33" gradientTransform="matrix(1 0 0 1 0 0)" gradientUnits="userSpaceOnUse" id="RadialGradient_3" r="25">
<stop offset="0.1" stop-color="#ffffff"/>
<stop offset="0.2" stop-color="#c3c5cb"/>
<stop offset="1" stop-color="#c3c5cb" stop-opacity="0"/>
</radialGradient>
<radialGradient cx="984.26" cy="364.16" gradientTransform="matrix(1 0 0 1 0 0)" gradientUnits="userSpaceOnUse" id="RadialGradient_4" r="25">
<stop offset="0.1" stop-color="#ffffff"/>
<stop offset="0.2" stop-color="#c3c5cb"/>
<stop offset="1" stop-color="#c3c5cb" stop-opacity="0"/>
</radialGradient>
<radialGradient cx="1305.15" cy="-82.29" gradientTransform="matrix(1 0 0 1 0 0)" gradientUnits="userSpaceOnUse" id="RadialGradient_5" r="25">
<stop offset="0.1" stop-color="#ffffff"/>
<stop offset="0.2" stop-color="#c3c5cb"/>
<stop offset="1" stop-color="#c3c5cb" stop-opacity="0"/>
</radialGradient>
<radialGradient cx="1271.83" cy="504.72" gradientTransform="matrix(1 0 0 1 0 0)" gradientUnits="userSpaceOnUse" id="RadialGradient_6" r="25">
<stop offset="0.1" stop-color="#ffffff"/>
<stop offset="0.2" stop-color="#c3c5cb"/>
<stop offset="1" stop-color="#c3c5cb" stop-opacity="0"/>
</radialGradient>
<radialGradient cx="1395.65" cy="-111.12" gradientTransform="matrix(1 0 0 1 0 0)" gradientUnits="userSpaceOnUse" id="RadialGradient_7" r="25">
<stop offset="0.1" stop-color="#ffffff"/>
<stop offset="0.2" stop-color="#c3c5cb"/>
<stop offset="1" stop-color="#c3c5cb" stop-opacity="0"/>
</radialGradient>
<radialGradient cx="1432.5" cy="93" gradientTransform="matrix(1 0 0 1 0 0)" gradientUnits="userSpaceOnUse" id="RadialGradient_8" r="25">
<stop offset="0.1" stop-color="#ffffff"/>
<stop offset="0.2" stop-color="#c3c5cb"/>
<stop offset="1" stop-color="#c3c5cb" stop-opacity="0"/>
</radialGradient>
<radialGradient cx="1439.06" cy="360.21" gradientTransform="matrix(1 0 0 1 0 0)" gradientUnits="userSpaceOnUse" id="RadialGradient_9" r="25">
<stop offset="0.1" stop-color="#ffffff"/>
<stop offset="0.2" stop-color="#c3c5cb"/>
<stop offset="1" stop-color="#c3c5cb" stop-opacity="0"/>
</radialGradient>
<radialGradient cx="1545.36" cy="-43.76" gradientTransform="matrix(1 0 0 1 0 0)" gradientUnits="userSpaceOnUse" id="RadialGradient_10" r="25">
<stop offset="0.1" stop-color="#ffffff"/>
<stop offset="0.2" stop-color="#c3c5cb"/>
<stop offset="1" stop-color="#c3c5cb" stop-opacity="0"/>
</radialGradient>
<radialGradient cx="1561.28" cy="543.38" gradientTransform="matrix(1 0 0 1 0 0)" gradientUnits="userSpaceOnUse" id="RadialGradient_11" r="25">
<stop offset="0.1" stop-color="#ffffff"/>
<stop offset="0.2" stop-color="#c3c5cb"/>
<stop offset="1" stop-color="#c3c5cb" stop-opacity="0"/>
</radialGradient>
<clipPath id="TextBounds">
<rect height="66.2474" transform="matrix(1 0 0 1 119.979 64.5687)" width="570.952" x="0" y="0"/>
</clipPath>
<clipPath id="TextBounds_2">
<rect height="41.7544" transform="matrix(1 0 0 1 144.801 139.95)" width="522.391" x="0" y="0"/>
</clipPath>
</defs>
<clipPath id="ArtboardFrame">
<rect height="560" width="1440" x="0" y="0"/>
</clipPath>
<g clip-path="url(#ArtboardFrame)" id="Untitled" vectornator:layerName="Untitled">
<g opacity="1">
<path d="" fill="none" opacity="1" stroke="#b0bbd2" stroke-linecap="butt" stroke-linejoin="miter" stroke-width="1.5"/>
<path d="M-101.57 354.01L88.25 379.32" fill="none" opacity="1" stroke="#b0bbd2" stroke-linecap="butt" stroke-linejoin="miter" stroke-width="1.5"/>
<path d="M-101.57 354.01L-93.38 560.89" fill="none" opacity="1" stroke="#b0bbd2" stroke-linecap="butt" stroke-linejoin="miter" stroke-width="1.5"/>
<path d="M-101.57 354.01L56.26 495.36" fill="none" opacity="1" stroke="#b0bbd2" stroke-linecap="butt" stroke-linejoin="miter" stroke-width="1.5"/>
<path d="" fill="none" opacity="1" stroke="#b0bbd2" stroke-linecap="butt" stroke-linejoin="miter" stroke-width="1.5"/>
<path d="M-93.38 560.89L-99.95 683.22" fill="none" opacity="1" stroke="#b0bbd2" stroke-linecap="butt" stroke-linejoin="miter" stroke-width="1.5"/>
<path d="M-93.38 560.89L56.26 495.36" fill="none" opacity="1" stroke="#b0bbd2" stroke-linecap="butt" stroke-linejoin="miter" stroke-width="1.5"/>
<path d="" fill="none" opacity="1" stroke="#b0bbd2" stroke-linecap="butt" stroke-linejoin="miter" stroke-width="1.5"/>
<path d="M-99.95 683.22L56.26 495.36" fill="none" opacity="1" stroke="#b0bbd2" stroke-linecap="butt" stroke-linejoin="miter" stroke-width="1.5"/>
<path d="M-99.95 683.22L-101.57 354.01" fill="none" opacity="1" stroke="#b0bbd2" stroke-linecap="butt" stroke-linejoin="miter" stroke-width="1.5"/>
<path d="M-99.95 683.22L229.59 652.92" fill="none" opacity="1" stroke="#b0bbd2" stroke-linecap="butt" stroke-linejoin="miter" stroke-width="1.5"/>
<path d="M-99.95 683.22L195.81 530.66" fill="none" opacity="1" stroke="#b0bbd2" stroke-linecap="butt" stroke-linejoin="miter" stroke-width="1.5"/>
<path d="" fill="none" opacity="1" stroke="#b0bbd2" stroke-linecap="butt" stroke-linejoin="miter" stroke-width="1.5"/>
<path d="M88.25 379.32L195.05 384.59" fill="none" opacity="1" stroke="#b0bbd2" stroke-linecap="butt" stroke-linejoin="miter" stroke-width="1.5"/>
<path d="M88.25 379.32L56.26 495.36" fill="none" opacity="1" stroke="#b0bbd2" stroke-linecap="butt" stroke-linejoin="miter" stroke-width="1.5"/>
<path d="M88.25 379.32L195.81 530.66" fill="none" opacity="1" stroke="#b0bbd2" stroke-linecap="butt" stroke-linejoin="miter" stroke-width="1.5"/>
<path d="M88.25 379.32L-93.38 560.89" fill="none" opacity="1" stroke="#b0bbd2" stroke-linecap="butt" stroke-linejoin="miter" stroke-width="1.5"/>
<path d="" fill="none" opacity="1" stroke="#b0bbd2" stroke-linecap="butt" stroke-linejoin="miter" stroke-width="1.5"/>
<path d="M56.26 495.36L195.81 530.66" fill="none" opacity="1" stroke="#b0bbd2" stroke-linecap="butt" stroke-linejoin="miter" stroke-width="1.5"/>
<path d="M56.26 495.36L195.05 384.59" fill="none" opacity="1" stroke="#b0bbd2" stroke-linecap="butt" stroke-linejoin="miter" stroke-width="1.5"/>
<path d="" fill="none" opacity="1" stroke="#b0bbd2" stroke-linecap="butt" stroke-linejoin="miter" stroke-width="1.5"/>
<path d="M195.05 384.59L195.81 530.66" fill="none" opacity="1" stroke="#b0bbd2" stroke-linecap="butt" stroke-linejoin="miter" stroke-width="1.5"/>
<path d="" fill="none" opacity="1" stroke="#b0bbd2" stroke-linecap="butt" stroke-linejoin="miter" stroke-width="1.5"/>
<path d="M195.81 530.66L229.59 652.92" fill="none" opacity="1" stroke="#b0bbd2" stroke-linecap="butt" stroke-linejoin="miter" stroke-width="1.5"/>
<path d="M195.81 530.66L356.38 546.88" fill="none" opacity="1" stroke="#b0bbd2" stroke-linecap="butt" stroke-linejoin="miter" stroke-width="1.5"/>
<path d="M195.81 530.66L385.19 707.17" fill="none" opacity="1" stroke="#b0bbd2" stroke-linecap="butt" stroke-linejoin="miter" stroke-width="1.5"/>
<path d="" fill="none" opacity="1" stroke="#b0bbd2" stroke-linecap="butt" stroke-linejoin="miter" stroke-width="1.5"/>
<path d="M229.59 652.92L385.19 707.17" fill="none" opacity="1" stroke="#b0bbd2" stroke-linecap="butt" stroke-linejoin="miter" stroke-width="1.5"/>
<path d="M229.59 652.92L356.38 546.88" fill="none" opacity="1" stroke="#b0bbd2" stroke-linecap="butt" stroke-linejoin="miter" stroke-width="1.5"/>
<path d="M229.59 652.92L56.26 495.36" fill="none" opacity="1" stroke="#b0bbd2" stroke-linecap="butt" stroke-linejoin="miter" stroke-width="1.5"/>
<path d="" fill="none" opacity="1" stroke="#b0bbd2" stroke-linecap="butt" stroke-linejoin="miter" stroke-width="1.5"/>
<path d="M412.36 367.1L490.81 351.62" fill="none" opacity="1" stroke="#b0bbd2" stroke-linecap="butt" stroke-linejoin="miter" stroke-width="1.5"/>
<path d="M412.36 367.1L356.38 546.88" fill="none" opacity="1" stroke="#b0bbd2" stroke-linecap="butt" stroke-linejoin="miter" stroke-width="1.5"/>
<path d="M412.36 367.1L195.05 384.59" fill="none" opacity="1" stroke="#b0bbd2" stroke-linecap="butt" stroke-linejoin="miter" stroke-width="1.5"/>
<path d="" fill="none" opacity="1" stroke="#b0bbd2" stroke-linecap="butt" stroke-linejoin="miter" stroke-width="1.5"/>
<path d="M356.38 546.88L385.19 707.17" fill="none" opacity="1" stroke="#b0bbd2" stroke-linecap="butt" stroke-linejoin="miter" stroke-width="1.5"/>
<path d="M356.38 546.88L554.1 533.48" fill="none" opacity="1" stroke="#b0bbd2" stroke-linecap="butt" stroke-linejoin="miter" stroke-width="1.5"/>
<path d="" fill="none" opacity="1" stroke="#b0bbd2" stroke-linecap="butt" stroke-linejoin="miter" stroke-width="1.5"/>
<path d="M385.19 707.17L559.23 667.96" fill="none" opacity="1" stroke="#b0bbd2" stroke-linecap="butt" stroke-linejoin="miter" stroke-width="1.5"/>
<path d="" fill="none" opacity="1" stroke="#b0bbd2" stroke-linecap="butt" stroke-linejoin="miter" stroke-width="1.5"/>
<path d="" fill="none" opacity="1" stroke="#b0bbd2" stroke-linecap="butt" stroke-linejoin="miter" stroke-width="1.5"/>
<path d="M554.1 533.48L559.23 667.96" fill="none" opacity="1" stroke="#b0bbd2" stroke-linecap="butt" stroke-linejoin="miter" stroke-width="1.5"/>
<path d="M554.1 533.48L706.5 516.73" fill="none" opacity="1" stroke="#b0bbd2" stroke-linecap="butt" stroke-linejoin="miter" stroke-width="1.5"/>
<path d="M554.1 533.48L641.26 703" fill="none" opacity="1" stroke="#b0bbd2" stroke-linecap="butt" stroke-linejoin="miter" stroke-width="1.5"/>
<path d="M554.1 533.48L490.81 351.62" fill="none" opacity="1" stroke="#b0bbd2" stroke-linecap="butt" stroke-linejoin="miter" stroke-width="1.5"/>
<path d="" fill="none" opacity="1" stroke="#b0bbd2" stroke-linecap="butt" stroke-linejoin="miter" stroke-width="1.5"/>
<path d="M559.23 667.96L641.26 703" fill="none" opacity="1" stroke="#b0bbd2" stroke-linecap="butt" stroke-linejoin="miter" stroke-width="1.5"/>
<path d="M559.23 667.96L706.5 516.73" fill="none" opacity="1" stroke="#b0bbd2" stroke-linecap="butt" stroke-linejoin="miter" stroke-width="1.5"/>
<path d="M559.23 667.96L356.38 546.88" fill="none" opacity="1" stroke="#b0bbd2" stroke-linecap="butt" stroke-linejoin="miter" stroke-width="1.5"/>
<path d="M559.23 667.96L836.54 695.71" fill="none" opacity="1" stroke="#b0bbd2" stroke-linecap="butt" stroke-linejoin="miter" stroke-width="1.5"/>
<path d="" fill="none" opacity="1" stroke="#b0bbd2" stroke-linecap="butt" stroke-linejoin="miter" stroke-width="1.5"/>
<path d="M708.08 246.99L790.85 233.79" fill="none" opacity="1" stroke="#b0bbd2" stroke-linecap="butt" stroke-linejoin="miter" stroke-width="1.5"/>
<path d="M708.08 246.99L678.35 347.23" fill="none" opacity="1" stroke="#b0bbd2" stroke-linecap="butt" stroke-linejoin="miter" stroke-width="1.5"/>
<path d="M708.08 246.99L850.04 371.15" fill="none" opacity="1" stroke="#b0bbd2" stroke-linecap="butt" stroke-linejoin="miter" stroke-width="1.5"/>
<path d="" fill="none" opacity="1" stroke="#b0bbd2" stroke-linecap="butt" stroke-linejoin="miter" stroke-width="1.5"/>
<path d="M678.35 347.23L790.85 233.79" fill="none" opacity="1" stroke="#b0bbd2" stroke-linecap="butt" stroke-linejoin="miter" stroke-width="1.5"/>
<path d="" fill="none" opacity="1" stroke="#b0bbd2" stroke-linecap="butt" stroke-linejoin="miter" stroke-width="1.5"/>
<path d="M706.5 516.73L830.68 522.74" fill="none" opacity="1" stroke="#b0bbd2" stroke-linecap="butt" stroke-linejoin="miter" stroke-width="1.5"/>
<path d="M706.5 516.73L678.35 347.23" fill="none" opacity="1" stroke="#b0bbd2" stroke-linecap="butt" stroke-linejoin="miter" stroke-width="1.5"/>
<path d="M706.5 516.73L641.26 703" fill="none" opacity="1" stroke="#b0bbd2" stroke-linecap="butt" stroke-linejoin="miter" stroke-width="1.5"/>
<path d="" fill="none" opacity="1" stroke="#b0bbd2" stroke-linecap="butt" stroke-linejoin="miter" stroke-width="1.5"/>
<path d="M641.26 703L836.54 695.71" fill="none" opacity="1" stroke="#b0bbd2" stroke-linecap="butt" stroke-linejoin="miter" stroke-width="1.5"/>
<path d="" fill="none" opacity="1" stroke="#b0bbd2" stroke-linecap="butt" stroke-linejoin="miter" stroke-width="1.5"/>
<path d="M790.85 233.79L850.04 371.15" fill="none" opacity="1" stroke="#b0bbd2" stroke-linecap="butt" stroke-linejoin="miter" stroke-width="1.5"/>
<path d="M790.85 233.79L954.16 244.89" fill="none" opacity="1" stroke="#b0bbd2" stroke-linecap="butt" stroke-linejoin="miter" stroke-width="1.5"/>
<path d="" fill="none" opacity="1" stroke="#b0bbd2" stroke-linecap="butt" stroke-linejoin="miter" stroke-width="1.5"/>
<path d="M850.04 371.15L830.68 522.74" fill="none" opacity="1" stroke="#b0bbd2" stroke-linecap="butt" stroke-linejoin="miter" stroke-width="1.5"/>
<path d="M850.04 371.15L1008.61 402.83" fill="none" opacity="1" stroke="#b0bbd2" stroke-linecap="butt" stroke-linejoin="miter" stroke-width="1.5"/>
<path d="" fill="none" opacity="1" stroke="#b0bbd2" stroke-linecap="butt" stroke-linejoin="miter" stroke-width="1.5"/>
<path d="M830.68 522.74L981.76 528.15" fill="none" opacity="1" stroke="#b0bbd2" stroke-linecap="butt" stroke-linejoin="miter" stroke-width="1.5"/>
<path d="M830.68 522.74L836.54 695.71" fill="none" opacity="1" stroke="#b0bbd2" stroke-linecap="butt" stroke-linejoin="miter" stroke-width="1.5"/>
<path d="M830.68 522.74L966.41 687.74" fill="none" opacity="1" stroke="#b0bbd2" stroke-linecap="butt" stroke-linejoin="miter" stroke-width="1.5"/>
<path d="M830.68 522.74L1008.61 402.83" fill="none" opacity="1" stroke="#b0bbd2" stroke-linecap="butt" stroke-linejoin="miter" stroke-width="1.5"/>
<path d="" fill="none" opacity="1" stroke="#b0bbd2" stroke-linecap="butt" stroke-linejoin="miter" stroke-width="1.5"/>
<path d="M836.54 695.71L966.41 687.74" fill="none" opacity="1" stroke="#b0bbd2" stroke-linecap="butt" stroke-linejoin="miter" stroke-width="1.5"/>
<path d="M836.54 695.71L706.5 516.73" fill="none" opacity="1" stroke="#b0bbd2" stroke-linecap="butt" stroke-linejoin="miter" stroke-width="1.5"/>
<path d="" fill="none" opacity="1" stroke="#b0bbd2" stroke-linecap="butt" stroke-linejoin="miter" stroke-width="1.5"/>
<path d="M947.28-45.42L986.33 65.23" fill="none" opacity="1" stroke="#b0bbd2" stroke-linecap="butt" stroke-linejoin="miter" stroke-width="1.5"/>
<path d="" fill="none" opacity="1" stroke="#b0bbd2" stroke-linecap="butt" stroke-linejoin="miter" stroke-width="1.5"/>
<path d="M986.33 65.23L1126.65 49.33" fill="none" opacity="1" stroke="#b0bbd2" stroke-linecap="butt" stroke-linejoin="miter" stroke-width="1.5"/>
<path d="M986.33 65.23L954.16 244.89" fill="none" opacity="1" stroke="#b0bbd2" stroke-linecap="butt" stroke-linejoin="miter" stroke-width="1.5"/>
<path d="" fill="none" opacity="1" stroke="#b0bbd2" stroke-linecap="butt" stroke-linejoin="miter" stroke-width="1.5"/>
<path d="M954.16 244.89L850.04 371.15" fill="none" opacity="1" stroke="#b0bbd2" stroke-linecap="butt" stroke-linejoin="miter" stroke-width="1.5"/>
<path d="" fill="none" opacity="1" stroke="#b0bbd2" stroke-linecap="butt" stroke-linejoin="miter" stroke-width="1.5"/>
<path d="M1008.61 402.83L981.76 528.15" fill="none" opacity="1" stroke="#b0bbd2" stroke-linecap="butt" stroke-linejoin="miter" stroke-width="1.5"/>
<path d="M1008.61 402.83L954.16 244.89" fill="none" opacity="1" stroke="#b0bbd2" stroke-linecap="butt" stroke-linejoin="miter" stroke-width="1.5"/>
<path d="" fill="none" opacity="1" stroke="#b0bbd2" stroke-linecap="butt" stroke-linejoin="miter" stroke-width="1.5"/>
<path d="M981.76 528.15L1094.71 641.42" fill="none" opacity="1" stroke="#b0bbd2" stroke-linecap="butt" stroke-linejoin="miter" stroke-width="1.5"/>
<path d="M981.76 528.15L966.41 687.74" fill="none" opacity="1" stroke="#b0bbd2" stroke-linecap="butt" stroke-linejoin="miter" stroke-width="1.5"/>
<path d="M981.76 528.15L1160.86 553.69" fill="none" opacity="1" stroke="#b0bbd2" stroke-linecap="butt" stroke-linejoin="miter" stroke-width="1.5"/>
<path d="M981.76 528.15L850.04 371.15" fill="none" opacity="1" stroke="#b0bbd2" stroke-linecap="butt" stroke-linejoin="miter" stroke-width="1.5"/>
<path d="" fill="none" opacity="1" stroke="#b0bbd2" stroke-linecap="butt" stroke-linejoin="miter" stroke-width="1.5"/>
<path d="M966.41 687.74L1094.71 641.42" fill="none" opacity="1" stroke="#b0bbd2" stroke-linecap="butt" stroke-linejoin="miter" stroke-width="1.5"/>
<path d="" fill="none" opacity="1" stroke="#b0bbd2" stroke-linecap="butt" stroke-linejoin="miter" stroke-width="1.5"/>
<path d="M1099.73-95.99L1126.65 49.33" fill="none" opacity="1" stroke="#b0bbd2" stroke-linecap="butt" stroke-linejoin="miter" stroke-width="1.5"/>
<path d="M1099.73-95.99L947.28-45.42" fill="none" opacity="1" stroke="#b0bbd2" stroke-linecap="butt" stroke-linejoin="miter" stroke-width="1.5"/>
<path d="M1099.73-95.99L986.33 65.23" fill="none" opacity="1" stroke="#b0bbd2" stroke-linecap="butt" stroke-linejoin="miter" stroke-width="1.5"/>
<path d="M1099.73-95.99L1306.88-74.47" fill="none" opacity="1" stroke="#b0bbd2" stroke-linecap="butt" stroke-linejoin="miter" stroke-width="1.5"/>
<path d="M1099.73-95.99L1268.74 105.97" fill="none" opacity="1" stroke="#b0bbd2" stroke-linecap="butt" stroke-linejoin="miter" stroke-width="1.5"/>
<path d="" fill="none" opacity="1" stroke="#b0bbd2" stroke-linecap="butt" stroke-linejoin="miter" stroke-width="1.5"/>
<path d="M1126.65 49.33L1130.49 201.92" fill="none" opacity="1" stroke="#b0bbd2" stroke-linecap="butt" stroke-linejoin="miter" stroke-width="1.5"/>
<path d="M1126.65 49.33L1268.74 105.97" fill="none" opacity="1" stroke="#b0bbd2" stroke-linecap="butt" stroke-linejoin="miter" stroke-width="1.5"/>
<path d="" fill="none" opacity="1" stroke="#b0bbd2" stroke-linecap="butt" stroke-linejoin="miter" stroke-width="1.5"/>
<path d="M1130.49 201.92L1257.66 221.56" fill="none" opacity="1" stroke="#b0bbd2" stroke-linecap="butt" stroke-linejoin="miter" stroke-width="1.5"/>
<path d="" fill="none" opacity="1" stroke="#b0bbd2" stroke-linecap="butt" stroke-linejoin="miter" stroke-width="1.5"/>
<path d="M1160.86 553.69L1094.71 641.42" fill="none" opacity="1" stroke="#b0bbd2" stroke-linecap="butt" stroke-linejoin="miter" stroke-width="1.5"/>
<path d="M1160.86 553.69L1276.1 517.52" fill="none" opacity="1" stroke="#b0bbd2" stroke-linecap="butt" stroke-linejoin="miter" stroke-width="1.5"/>
<path d="M1160.86 553.69L1298.62 692.46" fill="none" opacity="1" stroke="#b0bbd2" stroke-linecap="butt" stroke-linejoin="miter" stroke-width="1.5"/>
<path d="M1160.86 553.69L1266.88 385.14" fill="none" opacity="1" stroke="#b0bbd2" stroke-linecap="butt" stroke-linejoin="miter" stroke-width="1.5"/>
<path d="" fill="none" opacity="1" stroke="#b0bbd2" stroke-linecap="butt" stroke-linejoin="miter" stroke-width="1.5"/>
<path d="M1094.71 641.42L1298.62 692.46" fill="none" opacity="1" stroke="#b0bbd2" stroke-linecap="butt" stroke-linejoin="miter" stroke-width="1.5"/>
<path d="" fill="none" opacity="1" stroke="#b0bbd2" stroke-linecap="butt" stroke-linejoin="miter" stroke-width="1.5"/>
<path d="M1306.88-74.47L1422.41-40.2" fill="none" opacity="1" stroke="#b0bbd2" stroke-linecap="butt" stroke-linejoin="miter" stroke-width="1.5"/>
<path d="M1306.88-74.47L1268.74 105.97" fill="none" opacity="1" stroke="#b0bbd2" stroke-linecap="butt" stroke-linejoin="miter" stroke-width="1.5"/>
<path d="" fill="none" opacity="1" stroke="#b0bbd2" stroke-linecap="butt" stroke-linejoin="miter" stroke-width="1.5"/>
<path d="M1268.74 105.97L1257.66 221.56" fill="none" opacity="1" stroke="#b0bbd2" stroke-linecap="butt" stroke-linejoin="miter" stroke-width="1.5"/>
<path d="M1268.74 105.97L1402 94.09" fill="none" opacity="1" stroke="#b0bbd2" stroke-linecap="butt" stroke-linejoin="miter" stroke-width="1.5"/>
<path d="M1268.74 105.97L1130.49 201.92" fill="none" opacity="1" stroke="#b0bbd2" stroke-linecap="butt" stroke-linejoin="miter" stroke-width="1.5"/>
<path d="" fill="none" opacity="1" stroke="#b0bbd2" stroke-linecap="butt" stroke-linejoin="miter" stroke-width="1.5"/>
<path d="" fill="none" opacity="1" stroke="#b0bbd2" stroke-linecap="butt" stroke-linejoin="miter" stroke-width="1.5"/>
<path d="M1266.88 385.14L1276.1 517.52" fill="none" opacity="1" stroke="#b0bbd2" stroke-linecap="butt" stroke-linejoin="miter" stroke-width="1.5"/>
<path d="M1266.88 385.14L1257.66 221.56" fill="none" opacity="1" stroke="#b0bbd2" stroke-linecap="butt" stroke-linejoin="miter" stroke-width="1.5"/>
<path d="M1266.88 385.14L1430.94 361.44" fill="none" opacity="1" stroke="#b0bbd2" stroke-linecap="butt" stroke-linejoin="miter" stroke-width="1.5"/>
<path d="M1266.88 385.14L1413 214.86" fill="none" opacity="1" stroke="#b0bbd2" stroke-linecap="butt" stroke-linejoin="miter" stroke-width="1.5"/>
<path d="" fill="none" opacity="1" stroke="#b0bbd2" stroke-linecap="butt" stroke-linejoin="miter" stroke-width="1.5"/>
<path d="" fill="none" opacity="1" stroke="#b0bbd2" stroke-linecap="butt" stroke-linejoin="miter" stroke-width="1.5"/>
<path d="M1298.62 692.46L1429.98 706.35" fill="none" opacity="1" stroke="#b0bbd2" stroke-linecap="butt" stroke-linejoin="miter" stroke-width="1.5"/>
<path d="M1298.62 692.46L1276.1 517.52" fill="none" opacity="1" stroke="#b0bbd2" stroke-linecap="butt" stroke-linejoin="miter" stroke-width="1.5"/>
<path d="" fill="none" opacity="1" stroke="#b0bbd2" stroke-linecap="butt" stroke-linejoin="miter" stroke-width="1.5"/>
<path d="M1422.41-40.2L1402 94.09" fill="none" opacity="1" stroke="#b0bbd2" stroke-linecap="butt" stroke-linejoin="miter" stroke-width="1.5"/>
<path d="" fill="none" opacity="1" stroke="#b0bbd2" stroke-linecap="butt" stroke-linejoin="miter" stroke-width="1.5"/>
<path d="M1402 94.09L1413 214.86" fill="none" opacity="1" stroke="#b0bbd2" stroke-linecap="butt" stroke-linejoin="miter" stroke-width="1.5"/>
<path d="M1402 94.09L1555.49 64.88" fill="none" opacity="1" stroke="#b0bbd2" stroke-linecap="butt" stroke-linejoin="miter" stroke-width="1.5"/>
<path d="M1402 94.09L1257.66 221.56" fill="none" opacity="1" stroke="#b0bbd2" stroke-linecap="butt" stroke-linejoin="miter" stroke-width="1.5"/>
<path d="M1402 94.09L1306.88-74.47" fill="none" opacity="1" stroke="#b0bbd2" stroke-linecap="butt" stroke-linejoin="miter" stroke-width="1.5"/>
<path d="" fill="none" opacity="1" stroke="#b0bbd2" stroke-linecap="butt" stroke-linejoin="miter" stroke-width="1.5"/>
<path d="M1413 214.86L1430.94 361.44" fill="none" opacity="1" stroke="#b0bbd2" stroke-linecap="butt" stroke-linejoin="miter" stroke-width="1.5"/>
<path d="M1413 214.86L1257.66 221.56" fill="none" opacity="1" stroke="#b0bbd2" stroke-linecap="butt" stroke-linejoin="miter" stroke-width="1.5"/>
<path d="M1413 214.86L1569.06 201.41" fill="none" opacity="1" stroke="#b0bbd2" stroke-linecap="butt" stroke-linejoin="miter" stroke-width="1.5"/>
<path d="" fill="none" opacity="1" stroke="#b0bbd2" stroke-linecap="butt" stroke-linejoin="miter" stroke-width="1.5"/>
<path d="M1430.94 361.44L1459.6 509.84" fill="none" opacity="1" stroke="#b0bbd2" stroke-linecap="butt" stroke-linejoin="miter" stroke-width="1.5"/>
<path d="M1430.94 361.44L1585.86 393.81" fill="none" opacity="1" stroke="#b0bbd2" stroke-linecap="butt" stroke-linejoin="miter" stroke-width="1.5"/>
<path d="M1430.94 361.44L1569.06 201.41" fill="none" opacity="1" stroke="#b0bbd2" stroke-linecap="butt" stroke-linejoin="miter" stroke-width="1.5"/>
<path d="M1430.94 361.44L1276.1 517.52" fill="none" opacity="1" stroke="#b0bbd2" stroke-linecap="butt" stroke-linejoin="miter" stroke-width="1.5"/>
<path d="" fill="none" opacity="1" stroke="#b0bbd2" stroke-linecap="butt" stroke-linejoin="miter" stroke-width="1.5"/>
<path d="M1459.6 509.84L1553.46 560.47" fill="none" opacity="1" stroke="#b0bbd2" stroke-linecap="butt" stroke-linejoin="miter" stroke-width="1.5"/>
<path d="M1459.6 509.84L1585.86 393.81" fill="none" opacity="1" stroke="#b0bbd2" stroke-linecap="butt" stroke-linejoin="miter" stroke-width="1.5"/>
<path d="M1459.6 509.84L1276.1 517.52" fill="none" opacity="1" stroke="#b0bbd2" stroke-linecap="butt" stroke-linejoin="miter" stroke-width="1.5"/>
<path d="" fill="none" opacity="1" stroke="#b0bbd2" stroke-linecap="butt" stroke-linejoin="miter" stroke-width="1.5"/>
<path d="M1429.98 706.35L1552.23 682.51" fill="none" opacity="1" stroke="#b0bbd2" stroke-linecap="butt" stroke-linejoin="miter" stroke-width="1.5"/>
<path d="M1429.98 706.35L1553.46 560.47" fill="none" opacity="1" stroke="#b0bbd2" stroke-linecap="butt" stroke-linejoin="miter" stroke-width="1.5"/>
<path d="M1429.98 706.35L1459.6 509.84" fill="none" opacity="1" stroke="#b0bbd2" stroke-linecap="butt" stroke-linejoin="miter" stroke-width="1.5"/>
<path d="" fill="none" opacity="1" stroke="#b0bbd2" stroke-linecap="butt" stroke-linejoin="miter" stroke-width="1.5"/>
<path d="M1568.95-45.04L1555.49 64.88" fill="none" opacity="1" stroke="#b0bbd2" stroke-linecap="butt" stroke-linejoin="miter" stroke-width="1.5"/>
<path d="M1568.95-45.04L1422.41-40.2" fill="none" opacity="1" stroke="#b0bbd2" stroke-linecap="butt" stroke-linejoin="miter" stroke-width="1.5"/>
<path d="M1568.95-45.04L1402 94.09" fill="none" opacity="1" stroke="#b0bbd2" stroke-linecap="butt" stroke-linejoin="miter" stroke-width="1.5"/>
<path d="M1568.95-45.04L1569.06 201.41" fill="none" opacity="1" stroke="#b0bbd2" stroke-linecap="butt" stroke-linejoin="miter" stroke-width="1.5"/>
<path d="" fill="none" opacity="1" stroke="#b0bbd2" stroke-linecap="butt" stroke-linejoin="miter" stroke-width="1.5"/>
<path d="M1555.49 64.88L1569.06 201.41" fill="none" opacity="1" stroke="#b0bbd2" stroke-linecap="butt" stroke-linejoin="miter" stroke-width="1.5"/>
<path d="M1555.49 64.88L1422.41-40.2" fill="none" opacity="1" stroke="#b0bbd2" stroke-linecap="butt" stroke-linejoin="miter" stroke-width="1.5"/>
<path d="" fill="none" opacity="1" stroke="#b0bbd2" stroke-linecap="butt" stroke-linejoin="miter" stroke-width="1.5"/>
<path d="M1569.06 201.41L1585.86 393.81" fill="none" opacity="1" stroke="#b0bbd2" stroke-linecap="butt" stroke-linejoin="miter" stroke-width="1.5"/>
<path d="" fill="none" opacity="1" stroke="#b0bbd2" stroke-linecap="butt" stroke-linejoin="miter" stroke-width="1.5"/>
<path d="M1585.86 393.81L1553.46 560.47" fill="none" opacity="1" stroke="#b0bbd2" stroke-linecap="butt" stroke-linejoin="miter" stroke-width="1.5"/>
<path d="M1585.86 393.81L1413 214.86" fill="none" opacity="1" stroke="#b0bbd2" stroke-linecap="butt" stroke-linejoin="miter" stroke-width="1.5"/>
<path d="M1585.86 393.81L1552.23 682.51" fill="none" opacity="1" stroke="#b0bbd2" stroke-linecap="butt" stroke-linejoin="miter" stroke-width="1.5"/>
<path d="" fill="none" opacity="1" stroke="#b0bbd2" stroke-linecap="butt" stroke-linejoin="miter" stroke-width="1.5"/>
<path d="M1553.46 560.47L1552.23 682.51" fill="none" opacity="1" stroke="#b0bbd2" stroke-linecap="butt" stroke-linejoin="miter" stroke-width="1.5"/>
<path d="" fill="none" opacity="1" stroke="#b0bbd2" stroke-linecap="butt" stroke-linejoin="miter" stroke-width="1.5"/>
<path d="M1552.23 682.51L1459.6 509.84" fill="none" opacity="1" stroke="#b0bbd2" stroke-linecap="butt" stroke-linejoin="miter" stroke-width="1.5"/>
<path d="M1552.23 682.51L1298.62 692.46" fill="none" opacity="1" stroke="#b0bbd2" stroke-linecap="butt" stroke-linejoin="miter" stroke-width="1.5"/>
<path d="M-106.57 354.01C-106.57 351.249-104.331 349.01-101.57 349.01C-98.8086 349.01-96.57 351.249-96.57 354.01C-96.57 356.771-98.8086 359.01-101.57 359.01C-104.331 359.01-106.57 356.771-106.57 354.01Z" fill="#b0bbd2" fill-rule="nonzero" opacity="1" stroke="none"/>
<path d="M-98.38 560.89C-98.38 558.129-96.1414 555.89-93.38 555.89C-90.6186 555.89-88.38 558.129-88.38 560.89C-88.38 563.651-90.6186 565.89-93.38 565.89C-96.1414 565.89-98.38 563.651-98.38 560.89Z" fill="#b0bbd2" fill-rule="nonzero" opacity="1" stroke="none"/>
<path d="M-104.95 683.22C-104.95 680.459-102.711 678.22-99.95 678.22C-97.1886 678.22-94.95 680.459-94.95 683.22C-94.95 685.981-97.1886 688.22-99.95 688.22C-102.711 688.22-104.95 685.981-104.95 683.22Z" fill="#b0bbd2" fill-rule="nonzero" opacity="1" stroke="none"/>
<path d="M83.25 379.32C83.25 376.559 85.4886 374.32 88.25 374.32C91.0114 374.32 93.25 376.559 93.25 379.32C93.25 382.081 91.0114 384.32 88.25 384.32C85.4886 384.32 83.25 382.081 83.25 379.32Z" fill="#b0bbd2" fill-rule="nonzero" opacity="1" stroke="none"/>
<path d="M51.26 495.36C51.26 492.599 53.4986 490.36 56.26 490.36C59.0214 490.36 61.26 492.599 61.26 495.36C61.26 498.121 59.0214 500.36 56.26 500.36C53.4986 500.36 51.26 498.121 51.26 495.36Z" fill="#b0bbd2" fill-rule="nonzero" opacity="1" stroke="none"/>
<path d="M190.05 384.59C190.05 381.829 192.289 379.59 195.05 379.59C197.811 379.59 200.05 381.829 200.05 384.59C200.05 387.351 197.811 389.59 195.05 389.59C192.289 389.59 190.05 387.351 190.05 384.59Z" fill="#b0bbd2" fill-rule="nonzero" opacity="1" stroke="none"/>
<path d="M190.81 530.66C190.81 527.899 193.049 525.66 195.81 525.66C198.571 525.66 200.81 527.899 200.81 530.66C200.81 533.421 198.571 535.66 195.81 535.66C193.049 535.66 190.81 533.421 190.81 530.66Z" fill="#b0bbd2" fill-rule="nonzero" opacity="1" stroke="none"/>
<path d="M224.59 652.92C224.59 650.159 226.829 647.92 229.59 647.92C232.351 647.92 234.59 650.159 234.59 652.92C234.59 655.681 232.351 657.92 229.59 657.92C226.829 657.92 224.59 655.681 224.59 652.92Z" fill="#b0bbd2" fill-rule="nonzero" opacity="1" stroke="none"/>
<path d="M407.36 367.1C407.36 364.339 409.599 362.1 412.36 362.1C415.121 362.1 417.36 364.339 417.36 367.1C417.36 369.861 415.121 372.1 412.36 372.1C409.599 372.1 407.36 369.861 407.36 367.1Z" fill="#b0bbd2" fill-rule="nonzero" opacity="1" stroke="none"/>
<path d="M351.38 546.88C351.38 544.119 353.619 541.88 356.38 541.88C359.141 541.88 361.38 544.119 361.38 546.88C361.38 549.641 359.141 551.88 356.38 551.88C353.619 551.88 351.38 549.641 351.38 546.88Z" fill="#b0bbd2" fill-rule="nonzero" opacity="1" stroke="none"/>
<path d="M380.19 707.17C380.19 704.409 382.429 702.17 385.19 702.17C387.951 702.17 390.19 704.409 390.19 707.17C390.19 709.931 387.951 712.17 385.19 712.17C382.429 712.17 380.19 709.931 380.19 707.17Z" fill="#b0bbd2" fill-rule="nonzero" opacity="1" stroke="none"/>
<path d="M485.81 351.62C485.81 348.859 488.049 346.62 490.81 346.62C493.571 346.62 495.81 348.859 495.81 351.62C495.81 354.381 493.571 356.62 490.81 356.62C488.049 356.62 485.81 354.381 485.81 351.62Z" fill="#b0bbd2" fill-rule="nonzero" opacity="1" stroke="none"/>
<path d="M549.1 533.48C549.1 530.719 551.339 528.48 554.1 528.48C556.861 528.48 559.1 530.719 559.1 533.48C559.1 536.241 556.861 538.48 554.1 538.48C551.339 538.48 549.1 536.241 549.1 533.48Z" fill="#b0bbd2" fill-rule="nonzero" opacity="1" stroke="none"/>
<path d="M554.23 667.96C554.23 665.199 556.469 662.96 559.23 662.96C561.991 662.96 564.23 665.199 564.23 667.96C564.23 670.721 561.991 672.96 559.23 672.96C556.469 672.96 554.23 670.721 554.23 667.96Z" fill="#b0bbd2" fill-rule="nonzero" opacity="1" stroke="none"/>
<path d="M703.08 246.99C703.08 244.229 705.319 241.99 708.08 241.99C710.841 241.99 713.08 244.229 713.08 246.99C713.08 249.751 710.841 251.99 708.08 251.99C705.319 251.99 703.08 249.751 703.08 246.99Z" fill="#b0bbd2" fill-rule="nonzero" opacity="1" stroke="none"/>
<path d="M673.35 347.23C673.35 344.469 675.589 342.23 678.35 342.23C681.111 342.23 683.35 344.469 683.35 347.23C683.35 349.991 681.111 352.23 678.35 352.23C675.589 352.23 673.35 349.991 673.35 347.23Z" fill="#b0bbd2" fill-rule="nonzero" opacity="1" stroke="none"/>
<path d="M701.5 516.73C701.5 513.969 703.739 511.73 706.5 511.73C709.261 511.73 711.5 513.969 711.5 516.73C711.5 519.491 709.261 521.73 706.5 521.73C703.739 521.73 701.5 519.491 701.5 516.73Z" fill="#b0bbd2" fill-rule="nonzero" opacity="1" stroke="none"/>
<path d="M636.26 703C636.26 700.239 638.499 698 641.26 698C644.021 698 646.26 700.239 646.26 703C646.26 705.761 644.021 708 641.26 708C638.499 708 636.26 705.761 636.26 703Z" fill="#b0bbd2" fill-rule="nonzero" opacity="1" stroke="none"/>
<path d="M785.85 233.79C785.85 231.029 788.089 228.79 790.85 228.79C793.611 228.79 795.85 231.029 795.85 233.79C795.85 236.551 793.611 238.79 790.85 238.79C788.089 238.79 785.85 236.551 785.85 233.79Z" fill="#b0bbd2" fill-rule="nonzero" opacity="1" stroke="none"/>
<path d="M845.04 371.15C845.04 368.389 847.279 366.15 850.04 366.15C852.801 366.15 855.04 368.389 855.04 371.15C855.04 373.911 852.801 376.15 850.04 376.15C847.279 376.15 845.04 373.911 845.04 371.15Z" fill="#b0bbd2" fill-rule="nonzero" opacity="1" stroke="none"/>
<path d="M825.68 522.74C825.68 519.979 827.919 517.74 830.68 517.74C833.441 517.74 835.68 519.979 835.68 522.74C835.68 525.501 833.441 527.74 830.68 527.74C827.919 527.74 825.68 525.501 825.68 522.74Z" fill="#b0bbd2" fill-rule="nonzero" opacity="1" stroke="none"/>
<path d="M831.54 695.71C831.54 692.949 833.779 690.71 836.54 690.71C839.301 690.71 841.54 692.949 841.54 695.71C841.54 698.471 839.301 700.71 836.54 700.71C833.779 700.71 831.54 698.471 831.54 695.71Z" fill="#b0bbd2" fill-rule="nonzero" opacity="1" stroke="none"/>
<path d="M942.28-45.42C942.28-48.1814 944.519-50.42 947.28-50.42C950.041-50.42 952.28-48.1814 952.28-45.42C952.28-42.6586 950.041-40.42 947.28-40.42C944.519-40.42 942.28-42.6586 942.28-45.42Z" fill="#b0bbd2" fill-rule="nonzero" opacity="1" stroke="none"/>
<path d="M981.33 65.23C981.33 62.4686 983.569 60.23 986.33 60.23C989.091 60.23 991.33 62.4686 991.33 65.23C991.33 67.9914 989.091 70.23 986.33 70.23C983.569 70.23 981.33 67.9914 981.33 65.23Z" fill="#b0bbd2" fill-rule="nonzero" opacity="1" stroke="none"/>
<path d="M949.16 244.89C949.16 242.129 951.399 239.89 954.16 239.89C956.921 239.89 959.16 242.129 959.16 244.89C959.16 247.651 956.921 249.89 954.16 249.89C951.399 249.89 949.16 247.651 949.16 244.89Z" fill="#b0bbd2" fill-rule="nonzero" opacity="1" stroke="none"/>
<path d="M1003.61 402.83C1003.61 400.069 1005.85 397.83 1008.61 397.83C1011.37 397.83 1013.61 400.069 1013.61 402.83C1013.61 405.591 1011.37 407.83 1008.61 407.83C1005.85 407.83 1003.61 405.591 1003.61 402.83Z" fill="#b0bbd2" fill-rule="nonzero" opacity="1" stroke="none"/>
<path d="M976.76 528.15C976.76 525.389 978.999 523.15 981.76 523.15C984.521 523.15 986.76 525.389 986.76 528.15C986.76 530.911 984.521 533.15 981.76 533.15C978.999 533.15 976.76 530.911 976.76 528.15Z" fill="#b0bbd2" fill-rule="nonzero" opacity="1" stroke="none"/>
<path d="M961.41 687.74C961.41 684.979 963.649 682.74 966.41 682.74C969.171 682.74 971.41 684.979 971.41 687.74C971.41 690.501 969.171 692.74 966.41 692.74C963.649 692.74 961.41 690.501 961.41 687.74Z" fill="#b0bbd2" fill-rule="nonzero" opacity="1" stroke="none"/>
<path d="M1094.73-95.99C1094.73-98.7514 1096.97-100.99 1099.73-100.99C1102.49-100.99 1104.73-98.7514 1104.73-95.99C1104.73-93.2286 1102.49-90.99 1099.73-90.99C1096.97-90.99 1094.73-93.2286 1094.73-95.99Z" fill="#b0bbd2" fill-rule="nonzero" opacity="1" stroke="none"/>
<path d="M1121.65 49.33C1121.65 46.5686 1123.89 44.33 1126.65 44.33C1129.41 44.33 1131.65 46.5686 1131.65 49.33C1131.65 52.0914 1129.41 54.33 1126.65 54.33C1123.89 54.33 1121.65 52.0914 1121.65 49.33Z" fill="#b0bbd2" fill-rule="nonzero" opacity="1" stroke="none"/>
<path d="M1125.49 201.92C1125.49 199.159 1127.73 196.92 1130.49 196.92C1133.25 196.92 1135.49 199.159 1135.49 201.92C1135.49 204.681 1133.25 206.92 1130.49 206.92C1127.73 206.92 1125.49 204.681 1125.49 201.92Z" fill="#b0bbd2" fill-rule="nonzero" opacity="1" stroke="none"/>
<path d="M1155.86 553.69C1155.86 550.929 1158.1 548.69 1160.86 548.69C1163.62 548.69 1165.86 550.929 1165.86 553.69C1165.86 556.451 1163.62 558.69 1160.86 558.69C1158.1 558.69 1155.86 556.451 1155.86 553.69Z" fill="#b0bbd2" fill-rule="nonzero" opacity="1" stroke="none"/>
<path d="M1089.71 641.42C1089.71 638.659 1091.95 636.42 1094.71 636.42C1097.47 636.42 1099.71 638.659 1099.71 641.42C1099.71 644.181 1097.47 646.42 1094.71 646.42C1091.95 646.42 1089.71 644.181 1089.71 641.42Z" fill="#b0bbd2" fill-rule="nonzero" opacity="1" stroke="none"/>
<path d="M1301.88-74.47C1301.88-77.2314 1304.12-79.47 1306.88-79.47C1309.64-79.47 1311.88-77.2314 1311.88-74.47C1311.88-71.7086 1309.64-69.47 1306.88-69.47C1304.12-69.47 1301.88-71.7086 1301.88-74.47Z" fill="#b0bbd2" fill-rule="nonzero" opacity="1" stroke="none"/>
<path d="M1263.74 105.97C1263.74 103.209 1265.98 100.97 1268.74 100.97C1271.5 100.97 1273.74 103.209 1273.74 105.97C1273.74 108.731 1271.5 110.97 1268.74 110.97C1265.98 110.97 1263.74 108.731 1263.74 105.97Z" fill="#b0bbd2" fill-rule="nonzero" opacity="1" stroke="none"/>
<path d="M1252.66 221.56C1252.66 218.799 1254.9 216.56 1257.66 216.56C1260.42 216.56 1262.66 218.799 1262.66 221.56C1262.66 224.321 1260.42 226.56 1257.66 226.56C1254.9 226.56 1252.66 224.321 1252.66 221.56Z" fill="#b0bbd2" fill-rule="nonzero" opacity="1" stroke="none"/>
<path d="M1261.88 385.14C1261.88 382.379 1264.12 380.14 1266.88 380.14C1269.64 380.14 1271.88 382.379 1271.88 385.14C1271.88 387.901 1269.64 390.14 1266.88 390.14C1264.12 390.14 1261.88 387.901 1261.88 385.14Z" fill="#b0bbd2" fill-rule="nonzero" opacity="1" stroke="none"/>
<path d="M1271.1 517.52C1271.1 514.759 1273.34 512.52 1276.1 512.52C1278.86 512.52 1281.1 514.759 1281.1 517.52C1281.1 520.281 1278.86 522.52 1276.1 522.52C1273.34 522.52 1271.1 520.281 1271.1 517.52Z" fill="#b0bbd2" fill-rule="nonzero" opacity="1" stroke="none"/>
<path d="M1293.62 692.46C1293.62 689.699 1295.86 687.46 1298.62 687.46C1301.38 687.46 1303.62 689.699 1303.62 692.46C1303.62 695.221 1301.38 697.46 1298.62 697.46C1295.86 697.46 1293.62 695.221 1293.62 692.46Z" fill="#b0bbd2" fill-rule="nonzero" opacity="1" stroke="none"/>
<path d="M1417.41-40.2C1417.41-42.9614 1419.65-45.2 1422.41-45.2C1425.17-45.2 1427.41-42.9614 1427.41-40.2C1427.41-37.4386 1425.17-35.2 1422.41-35.2C1419.65-35.2 1417.41-37.4386 1417.41-40.2Z" fill="#b0bbd2" fill-rule="nonzero" opacity="1" stroke="none"/>
<path d="M1397 94.09C1397 91.3286 1399.24 89.09 1402 89.09C1404.76 89.09 1407 91.3286 1407 94.09C1407 96.8514 1404.76 99.09 1402 99.09C1399.24 99.09 1397 96.8514 1397 94.09Z" fill="#b0bbd2" fill-rule="nonzero" opacity="1" stroke="none"/>
<path d="M1408 214.86C1408 212.099 1410.24 209.86 1413 209.86C1415.76 209.86 1418 212.099 1418 214.86C1418 217.621 1415.76 219.86 1413 219.86C1410.24 219.86 1408 217.621 1408 214.86Z" fill="#b0bbd2" fill-rule="nonzero" opacity="1" stroke="none"/>
<path d="M1425.94 361.44C1425.94 358.679 1428.18 356.44 1430.94 356.44C1433.7 356.44 1435.94 358.679 1435.94 361.44C1435.94 364.201 1433.7 366.44 1430.94 366.44C1428.18 366.44 1425.94 364.201 1425.94 361.44Z" fill="#b0bbd2" fill-rule="nonzero" opacity="1" stroke="none"/>
<path d="M1454.6 509.84C1454.6 507.079 1456.84 504.84 1459.6 504.84C1462.36 504.84 1464.6 507.079 1464.6 509.84C1464.6 512.601 1462.36 514.84 1459.6 514.84C1456.84 514.84 1454.6 512.601 1454.6 509.84Z" fill="#b0bbd2" fill-rule="nonzero" opacity="1" stroke="none"/>
<path d="M1424.98 706.35C1424.98 703.589 1427.22 701.35 1429.98 701.35C1432.74 701.35 1434.98 703.589 1434.98 706.35C1434.98 709.111 1432.74 711.35 1429.98 711.35C1427.22 711.35 1424.98 709.111 1424.98 706.35Z" fill="#b0bbd2" fill-rule="nonzero" opacity="1" stroke="none"/>
<path d="M1563.95-45.04C1563.95-47.8014 1566.19-50.04 1568.95-50.04C1571.71-50.04 1573.95-47.8014 1573.95-45.04C1573.95-42.2786 1571.71-40.04 1568.95-40.04C1566.19-40.04 1563.95-42.2786 1563.95-45.04Z" fill="#b0bbd2" fill-rule="nonzero" opacity="1" stroke="none"/>
<path d="M1550.49 64.88C1550.49 62.1186 1552.73 59.88 1555.49 59.88C1558.25 59.88 1560.49 62.1186 1560.49 64.88C1560.49 67.6414 1558.25 69.88 1555.49 69.88C1552.73 69.88 1550.49 67.6414 1550.49 64.88Z" fill="#b0bbd2" fill-rule="nonzero" opacity="1" stroke="none"/>
<path d="M1564.06 201.41C1564.06 198.649 1566.3 196.41 1569.06 196.41C1571.82 196.41 1574.06 198.649 1574.06 201.41C1574.06 204.171 1571.82 206.41 1569.06 206.41C1566.3 206.41 1564.06 204.171 1564.06 201.41Z" fill="#b0bbd2" fill-rule="nonzero" opacity="1" stroke="none"/>
<path d="M1580.86 393.81C1580.86 391.049 1583.1 388.81 1585.86 388.81C1588.62 388.81 1590.86 391.049 1590.86 393.81C1590.86 396.571 1588.62 398.81 1585.86 398.81C1583.1 398.81 1580.86 396.571 1580.86 393.81Z" fill="#b0bbd2" fill-rule="nonzero" opacity="1" stroke="none"/>
<path d="M1548.46 560.47C1548.46 557.709 1550.7 555.47 1553.46 555.47C1556.22 555.47 1558.46 557.709 1558.46 560.47C1558.46 563.231 1556.22 565.47 1553.46 565.47C1550.7 565.47 1548.46 563.231 1548.46 560.47Z" fill="#b0bbd2" fill-rule="nonzero" opacity="1" stroke="none"/>
<path d="M1547.23 682.51C1547.23 679.749 1549.47 677.51 1552.23 677.51C1554.99 677.51 1557.23 679.749 1557.23 682.51C1557.23 685.271 1554.99 687.51 1552.23 687.51C1549.47 687.51 1547.23 685.271 1547.23 682.51Z" fill="#b0bbd2" fill-rule="nonzero" opacity="1" stroke="none"/>
<path d="" fill="none" opacity="1" stroke="#ff0000" stroke-linecap="butt" stroke-linejoin="miter" stroke-width="1.5"/>
<path d="M-59.02 493.28L-53.18 648.43" fill="none" opacity="1" stroke="#ff0000" stroke-linecap="butt" stroke-linejoin="miter" stroke-width="1.5"/>
<path d="M-59.02 493.28L111.49 509.62" fill="none" opacity="1" stroke="#ff0000" stroke-linecap="butt" stroke-linejoin="miter" stroke-width="1.5"/>
<path d="M-59.02 493.28L55.47 701.94" fill="none" opacity="1" stroke="#ff0000" stroke-linecap="butt" stroke-linejoin="miter" stroke-width="1.5"/>
<path d="M-59.02 493.28L217.63 560.39" fill="none" opacity="1" stroke="#ff0000" stroke-linecap="butt" stroke-linejoin="miter" stroke-width="1.5"/>
<path d="M-59.02 493.28L192.01 643.8" fill="none" opacity="1" stroke="#ff0000" stroke-linecap="butt" stroke-linejoin="miter" stroke-width="1.5"/>
<path d="" fill="none" opacity="1" stroke="#ff0000" stroke-linecap="butt" stroke-linejoin="miter" stroke-width="1.5"/>
<path d="M378.18 683.49L355.57 551.17" fill="none" opacity="1" stroke="#ff0000" stroke-linecap="butt" stroke-linejoin="miter" stroke-width="1.5"/>
<path d="M378.18 683.49L547.39 704.46" fill="none" opacity="1" stroke="#ff0000" stroke-linecap="butt" stroke-linejoin="miter" stroke-width="1.5"/>
<path d="M378.18 683.49L491.33 555.64" fill="none" opacity="1" stroke="#ff0000" stroke-linecap="butt" stroke-linejoin="miter" stroke-width="1.5"/>
<path d="" fill="none" opacity="1" stroke="#ff0000" stroke-linecap="butt" stroke-linejoin="miter" stroke-width="1.5"/>
<path d="M991.4 243.33L984.26 364.16" fill="none" opacity="1" stroke="#ff0000" stroke-linecap="butt" stroke-linejoin="miter" stroke-width="1.5"/>
<path d="M991.4 243.33L1143.99 193.48" fill="none" opacity="1" stroke="#ff0000" stroke-linecap="butt" stroke-linejoin="miter" stroke-width="1.5"/>
<path d="M991.4 243.33L1128.65 347.05" fill="none" opacity="1" stroke="#ff0000" stroke-linecap="butt" stroke-linejoin="miter" stroke-width="1.5"/>
<path d="" fill="none" opacity="1" stroke="#ff0000" stroke-linecap="butt" stroke-linejoin="miter" stroke-width="1.5"/>
<path d="M984.26 364.16L1128.65 347.05" fill="none" opacity="1" stroke="#ff0000" stroke-linecap="butt" stroke-linejoin="miter" stroke-width="1.5"/>
<path d="M984.26 364.16L817.12 345.04" fill="none" opacity="1" stroke="#ff0000" stroke-linecap="butt" stroke-linejoin="miter" stroke-width="1.5"/>
<path d="M984.26 364.16L1113.35 492.67" fill="none" opacity="1" stroke="#ff0000" stroke-linecap="butt" stroke-linejoin="miter" stroke-width="1.5"/>
<path d="M984.26 364.16L990.08 553.39" fill="none" opacity="1" stroke="#ff0000" stroke-linecap="butt" stroke-linejoin="miter" stroke-width="1.5"/>
<path d="" fill="none" opacity="1" stroke="#ff0000" stroke-linecap="butt" stroke-linejoin="miter" stroke-width="1.5"/>
<path d="M1305.15-82.29L1395.65-111.12" fill="none" opacity="1" stroke="#ff0000" stroke-linecap="butt" stroke-linejoin="miter" stroke-width="1.5"/>
<path d="M1305.15-82.29L1294.38 73.85" fill="none" opacity="1" stroke="#ff0000" stroke-linecap="butt" stroke-linejoin="miter" stroke-width="1.5"/>
<path d="M1305.15-82.29L1432.5 93" fill="none" opacity="1" stroke="#ff0000" stroke-linecap="butt" stroke-linejoin="miter" stroke-width="1.5"/>
<path d="M1305.15-82.29L1545.36-43.76" fill="none" opacity="1" stroke="#ff0000" stroke-linecap="butt" stroke-linejoin="miter" stroke-width="1.5"/>
<path d="" fill="none" opacity="1" stroke="#ff0000" stroke-linecap="butt" stroke-linejoin="miter" stroke-width="1.5"/>
<path d="M1271.83 504.72L1258.87 361.5" fill="none" opacity="1" stroke="#ff0000" stroke-linecap="butt" stroke-linejoin="miter" stroke-width="1.5"/>
<path d="M1271.83 504.72L1429.03 518.31" fill="none" opacity="1" stroke="#ff0000" stroke-linecap="butt" stroke-linejoin="miter" stroke-width="1.5"/>
<path d="M1271.83 504.72L1113.35 492.67" fill="none" opacity="1" stroke="#ff0000" stroke-linecap="butt" stroke-linejoin="miter" stroke-width="1.5"/>
<path d="M1271.83 504.72L1245.4 679.15" fill="none" opacity="1" stroke="#ff0000" stroke-linecap="butt" stroke-linejoin="miter" stroke-width="1.5"/>
<path d="" fill="none" opacity="1" stroke="#ff0000" stroke-linecap="butt" stroke-linejoin="miter" stroke-width="1.5"/>
<path d="M1395.65-111.12L1545.36-43.76" fill="none" opacity="1" stroke="#ff0000" stroke-linecap="butt" stroke-linejoin="miter" stroke-width="1.5"/>
<path d="M1395.65-111.12L1432.5 93" fill="none" opacity="1" stroke="#ff0000" stroke-linecap="butt" stroke-linejoin="miter" stroke-width="1.5"/>
<path d="M1395.65-111.12L1294.38 73.85" fill="none" opacity="1" stroke="#ff0000" stroke-linecap="butt" stroke-linejoin="miter" stroke-width="1.5"/>
<path d="M1395.65-111.12L1586.06 91.35" fill="none" opacity="1" stroke="#ff0000" stroke-linecap="butt" stroke-linejoin="miter" stroke-width="1.5"/>
<path d="" fill="none" opacity="1" stroke="#ff0000" stroke-linecap="butt" stroke-linejoin="miter" stroke-width="1.5"/>
<path d="M1432.5 93L1294.38 73.85" fill="none" opacity="1" stroke="#ff0000" stroke-linecap="butt" stroke-linejoin="miter" stroke-width="1.5"/>
<path d="M1432.5 93L1586.06 91.35" fill="none" opacity="1" stroke="#ff0000" stroke-linecap="butt" stroke-linejoin="miter" stroke-width="1.5"/>
<path d="M1432.5 93L1442.76 256.66" fill="none" opacity="1" stroke="#ff0000" stroke-linecap="butt" stroke-linejoin="miter" stroke-width="1.5"/>
<path d="" fill="none" opacity="1" stroke="#ff0000" stroke-linecap="butt" stroke-linejoin="miter" stroke-width="1.5"/>
<path d="M1439.06 360.21L1442.76 256.66" fill="none" opacity="1" stroke="#ff0000" stroke-linecap="butt" stroke-linejoin="miter" stroke-width="1.5"/>
<path d="M1439.06 360.21L1429.03 518.31" fill="none" opacity="1" stroke="#ff0000" stroke-linecap="butt" stroke-linejoin="miter" stroke-width="1.5"/>
<path d="M1439.06 360.21L1596.77 393.11" fill="none" opacity="1" stroke="#ff0000" stroke-linecap="butt" stroke-linejoin="miter" stroke-width="1.5"/>
<path d="M1439.06 360.21L1258.87 361.5" fill="none" opacity="1" stroke="#ff0000" stroke-linecap="butt" stroke-linejoin="miter" stroke-width="1.5"/>
<path d="M1439.06 360.21L1565.2 197.46" fill="none" opacity="1" stroke="#ff0000" stroke-linecap="butt" stroke-linejoin="miter" stroke-width="1.5"/>
<path d="M1439.06 360.21L1561.28 543.38" fill="none" opacity="1" stroke="#ff0000" stroke-linecap="butt" stroke-linejoin="miter" stroke-width="1.5"/>
<path d="" fill="none" opacity="1" stroke="#ff0000" stroke-linecap="butt" stroke-linejoin="miter" stroke-width="1.5"/>
<path d="M1545.36-43.76L1586.06 91.35" fill="none" opacity="1" stroke="#ff0000" stroke-linecap="butt" stroke-linejoin="miter" stroke-width="1.5"/>
<path d="M1545.36-43.76L1432.5 93" fill="none" opacity="1" stroke="#ff0000" stroke-linecap="butt" stroke-linejoin="miter" stroke-width="1.5"/>
<path d="M1545.36-43.76L1565.2 197.46" fill="none" opacity="1" stroke="#ff0000" stroke-linecap="butt" stroke-linejoin="miter" stroke-width="1.5"/>
<path d="" fill="none" opacity="1" stroke="#ff0000" stroke-linecap="butt" stroke-linejoin="miter" stroke-width="1.5"/>
<path d="M1561.28 543.38L1552.95 673.26" fill="none" opacity="1" stroke="#ff0000" stroke-linecap="butt" stroke-linejoin="miter" stroke-width="1.5"/>
<path d="" fill="none" opacity="1" stroke="#ff0000" stroke-linecap="butt" stroke-linejoin="miter" stroke-width="1.5"/>
<path d="M-53.18 648.43L55.47 701.94" fill="none" opacity="1" stroke="#ff0000" stroke-linecap="butt" stroke-linejoin="miter" stroke-width="1.5"/>
<path d="M-53.18 648.43L111.49 509.62" fill="none" opacity="1" stroke="#ff0000" stroke-linecap="butt" stroke-linejoin="miter" stroke-width="1.5"/>
<path d="" fill="none" opacity="1" stroke="#ff0000" stroke-linecap="butt" stroke-linejoin="miter" stroke-width="1.5"/>
<path d="M111.49 509.62L217.63 560.39" fill="none" opacity="1" stroke="#ff0000" stroke-linecap="butt" stroke-linejoin="miter" stroke-width="1.5"/>
<path d="M111.49 509.62L192.01 643.8" fill="none" opacity="1" stroke="#ff0000" stroke-linecap="butt" stroke-linejoin="miter" stroke-width="1.5"/>
<path d="M111.49 509.62L55.47 701.94" fill="none" opacity="1" stroke="#ff0000" stroke-linecap="butt" stroke-linejoin="miter" stroke-width="1.5"/>
<path d="" fill="none" opacity="1" stroke="#ff0000" stroke-linecap="butt" stroke-linejoin="miter" stroke-width="1.5"/>
<path d="M55.47 701.94L192.01 643.8" fill="none" opacity="1" stroke="#ff0000" stroke-linecap="butt" stroke-linejoin="miter" stroke-width="1.5"/>
<path d="" fill="none" opacity="1" stroke="#ff0000" stroke-linecap="butt" stroke-linejoin="miter" stroke-width="1.5"/>
<path d="M217.63 560.39L192.01 643.8" fill="none" opacity="1" stroke="#ff0000" stroke-linecap="butt" stroke-linejoin="miter" stroke-width="1.5"/>
<path d="M217.63 560.39L355.57 551.17" fill="none" opacity="1" stroke="#ff0000" stroke-linecap="butt" stroke-linejoin="miter" stroke-width="1.5"/>
<path d="M217.63 560.39L378.18 683.49" fill="none" opacity="1" stroke="#ff0000" stroke-linecap="butt" stroke-linejoin="miter" stroke-width="1.5"/>
<path d="" fill="none" opacity="1" stroke="#ff0000" stroke-linecap="butt" stroke-linejoin="miter" stroke-width="1.5"/>
<path d="" fill="none" opacity="1" stroke="#ff0000" stroke-linecap="butt" stroke-linejoin="miter" stroke-width="1.5"/>
<path d="M355.57 551.17L491.33 555.64" fill="none" opacity="1" stroke="#ff0000" stroke-linecap="butt" stroke-linejoin="miter" stroke-width="1.5"/>
<path d="M355.57 551.17L192.01 643.8" fill="none" opacity="1" stroke="#ff0000" stroke-linecap="butt" stroke-linejoin="miter" stroke-width="1.5"/>
<path d="M355.57 551.17L547.39 704.46" fill="none" opacity="1" stroke="#ff0000" stroke-linecap="butt" stroke-linejoin="miter" stroke-width="1.5"/>
<path d="M355.57 551.17L111.49 509.62" fill="none" opacity="1" stroke="#ff0000" stroke-linecap="butt" stroke-linejoin="miter" stroke-width="1.5"/>
<path d="" fill="none" opacity="1" stroke="#ff0000" stroke-linecap="butt" stroke-linejoin="miter" stroke-width="1.5"/>
<path d="M491.33 555.64L547.39 704.46" fill="none" opacity="1" stroke="#ff0000" stroke-linecap="butt" stroke-linejoin="miter" stroke-width="1.5"/>
<path d="M491.33 555.64L688.66 536.21" fill="none" opacity="1" stroke="#ff0000" stroke-linecap="butt" stroke-linejoin="miter" stroke-width="1.5"/>
<path d="M491.33 555.64L692.55 676.31" fill="none" opacity="1" stroke="#ff0000" stroke-linecap="butt" stroke-linejoin="miter" stroke-width="1.5"/>
<path d="M491.33 555.64L686.61 391.07" fill="none" opacity="1" stroke="#ff0000" stroke-linecap="butt" stroke-linejoin="miter" stroke-width="1.5"/>
<path d="" fill="none" opacity="1" stroke="#ff0000" stroke-linecap="butt" stroke-linejoin="miter" stroke-width="1.5"/>
<path d="M547.39 704.46L692.55 676.31" fill="none" opacity="1" stroke="#ff0000" stroke-linecap="butt" stroke-linejoin="miter" stroke-width="1.5"/>
<path d="" fill="none" opacity="1" stroke="#ff0000" stroke-linecap="butt" stroke-linejoin="miter" stroke-width="1.5"/>
<path d="M686.61 391.07L817.12 345.04" fill="none" opacity="1" stroke="#ff0000" stroke-linecap="butt" stroke-linejoin="miter" stroke-width="1.5"/>
<path d="M686.61 391.07L688.66 536.21" fill="none" opacity="1" stroke="#ff0000" stroke-linecap="butt" stroke-linejoin="miter" stroke-width="1.5"/>
<path d="M686.61 391.07L824.36 538.67" fill="none" opacity="1" stroke="#ff0000" stroke-linecap="butt" stroke-linejoin="miter" stroke-width="1.5"/>
<path d="M686.61 391.07L692.55 676.31" fill="none" opacity="1" stroke="#ff0000" stroke-linecap="butt" stroke-linejoin="miter" stroke-width="1.5"/>
<path d="M686.61 391.07L984.26 364.16" fill="none" opacity="1" stroke="#ff0000" stroke-linecap="butt" stroke-linejoin="miter" stroke-width="1.5"/>
<path d="" fill="none" opacity="1" stroke="#ff0000" stroke-linecap="butt" stroke-linejoin="miter" stroke-width="1.5"/>
<path d="M688.66 536.21L824.36 538.67" fill="none" opacity="1" stroke="#ff0000" stroke-linecap="butt" stroke-linejoin="miter" stroke-width="1.5"/>
<path d="M688.66 536.21L692.55 676.31" fill="none" opacity="1" stroke="#ff0000" stroke-linecap="butt" stroke-linejoin="miter" stroke-width="1.5"/>
<path d="" fill="none" opacity="1" stroke="#ff0000" stroke-linecap="butt" stroke-linejoin="miter" stroke-width="1.5"/>
<path d="M692.55 676.31L802.06 699.65" fill="none" opacity="1" stroke="#ff0000" stroke-linecap="butt" stroke-linejoin="miter" stroke-width="1.5"/>
<path d="M692.55 676.31L824.36 538.67" fill="none" opacity="1" stroke="#ff0000" stroke-linecap="butt" stroke-linejoin="miter" stroke-width="1.5"/>
<path d="" fill="none" opacity="1" stroke="#ff0000" stroke-linecap="butt" stroke-linejoin="miter" stroke-width="1.5"/>
<path d="M817.12 345.04L824.36 538.67" fill="none" opacity="1" stroke="#ff0000" stroke-linecap="butt" stroke-linejoin="miter" stroke-width="1.5"/>
<path d="M817.12 345.04L991.4 243.33" fill="none" opacity="1" stroke="#ff0000" stroke-linecap="butt" stroke-linejoin="miter" stroke-width="1.5"/>
<path d="M817.12 345.04L688.66 536.21" fill="none" opacity="1" stroke="#ff0000" stroke-linecap="butt" stroke-linejoin="miter" stroke-width="1.5"/>
<path d="" fill="none" opacity="1" stroke="#ff0000" stroke-linecap="butt" stroke-linejoin="miter" stroke-width="1.5"/>
<path d="M824.36 538.67L802.06 699.65" fill="none" opacity="1" stroke="#ff0000" stroke-linecap="butt" stroke-linejoin="miter" stroke-width="1.5"/>
<path d="" fill="none" opacity="1" stroke="#ff0000" stroke-linecap="butt" stroke-linejoin="miter" stroke-width="1.5"/>
<path d="" fill="none" opacity="1" stroke="#ff0000" stroke-linecap="butt" stroke-linejoin="miter" stroke-width="1.5"/>
<path d="M990.08 553.39L1113.35 492.67" fill="none" opacity="1" stroke="#ff0000" stroke-linecap="butt" stroke-linejoin="miter" stroke-width="1.5"/>
<path d="M990.08 553.39L975.32 698.49" fill="none" opacity="1" stroke="#ff0000" stroke-linecap="butt" stroke-linejoin="miter" stroke-width="1.5"/>
<path d="M990.08 553.39L824.36 538.67" fill="none" opacity="1" stroke="#ff0000" stroke-linecap="butt" stroke-linejoin="miter" stroke-width="1.5"/>
<path d="M990.08 553.39L1128.99 663.06" fill="none" opacity="1" stroke="#ff0000" stroke-linecap="butt" stroke-linejoin="miter" stroke-width="1.5"/>
<path d="M990.08 553.39L802.06 699.65" fill="none" opacity="1" stroke="#ff0000" stroke-linecap="butt" stroke-linejoin="miter" stroke-width="1.5"/>
<path d="" fill="none" opacity="1" stroke="#ff0000" stroke-linecap="butt" stroke-linejoin="miter" stroke-width="1.5"/>
<path d="M975.32 698.49L1128.99 663.06" fill="none" opacity="1" stroke="#ff0000" stroke-linecap="butt" stroke-linejoin="miter" stroke-width="1.5"/>
<path d="M975.32 698.49L802.06 699.65" fill="none" opacity="1" stroke="#ff0000" stroke-linecap="butt" stroke-linejoin="miter" stroke-width="1.5"/>
<path d="M975.32 698.49L824.36 538.67" fill="none" opacity="1" stroke="#ff0000" stroke-linecap="butt" stroke-linejoin="miter" stroke-width="1.5"/>
<path d="M975.32 698.49L1113.35 492.67" fill="none" opacity="1" stroke="#ff0000" stroke-linecap="butt" stroke-linejoin="miter" stroke-width="1.5"/>
<path d="" fill="none" opacity="1" stroke="#ff0000" stroke-linecap="butt" stroke-linejoin="miter" stroke-width="1.5"/>
<path d="M1143.99 193.48L1260.05 196.08" fill="none" opacity="1" stroke="#ff0000" stroke-linecap="butt" stroke-linejoin="miter" stroke-width="1.5"/>
<path d="M1143.99 193.48L1128.65 347.05" fill="none" opacity="1" stroke="#ff0000" stroke-linecap="butt" stroke-linejoin="miter" stroke-width="1.5"/>
<path d="" fill="none" opacity="1" stroke="#ff0000" stroke-linecap="butt" stroke-linejoin="miter" stroke-width="1.5"/>
<path d="M1128.65 347.05L1258.87 361.5" fill="none" opacity="1" stroke="#ff0000" stroke-linecap="butt" stroke-linejoin="miter" stroke-width="1.5"/>
<path d="M1128.65 347.05L1113.35 492.67" fill="none" opacity="1" stroke="#ff0000" stroke-linecap="butt" stroke-linejoin="miter" stroke-width="1.5"/>
<path d="" fill="none" opacity="1" stroke="#ff0000" stroke-linecap="butt" stroke-linejoin="miter" stroke-width="1.5"/>
<path d="M1113.35 492.67L1128.99 663.06" fill="none" opacity="1" stroke="#ff0000" stroke-linecap="butt" stroke-linejoin="miter" stroke-width="1.5"/>
<path d="M1113.35 492.67L1258.87 361.5" fill="none" opacity="1" stroke="#ff0000" stroke-linecap="butt" stroke-linejoin="miter" stroke-width="1.5"/>
<path d="" fill="none" opacity="1" stroke="#ff0000" stroke-linecap="butt" stroke-linejoin="miter" stroke-width="1.5"/>
<path d="M1128.99 663.06L1245.4 679.15" fill="none" opacity="1" stroke="#ff0000" stroke-linecap="butt" stroke-linejoin="miter" stroke-width="1.5"/>
<path d="" fill="none" opacity="1" stroke="#ff0000" stroke-linecap="butt" stroke-linejoin="miter" stroke-width="1.5"/>
<path d="M1294.38 73.85L1260.05 196.08" fill="none" opacity="1" stroke="#ff0000" stroke-linecap="butt" stroke-linejoin="miter" stroke-width="1.5"/>
<path d="" fill="none" opacity="1" stroke="#ff0000" stroke-linecap="butt" stroke-linejoin="miter" stroke-width="1.5"/>
<path d="M1260.05 196.08L1258.87 361.5" fill="none" opacity="1" stroke="#ff0000" stroke-linecap="butt" stroke-linejoin="miter" stroke-width="1.5"/>
<path d="M1260.05 196.08L1442.76 256.66" fill="none" opacity="1" stroke="#ff0000" stroke-linecap="butt" stroke-linejoin="miter" stroke-width="1.5"/>
<path d="" fill="none" opacity="1" stroke="#ff0000" stroke-linecap="butt" stroke-linejoin="miter" stroke-width="1.5"/>
<path d="" fill="none" opacity="1" stroke="#ff0000" stroke-linecap="butt" stroke-linejoin="miter" stroke-width="1.5"/>
<path d="M1245.4 679.15L1415.04 641.23" fill="none" opacity="1" stroke="#ff0000" stroke-linecap="butt" stroke-linejoin="miter" stroke-width="1.5"/>
<path d="M1245.4 679.15L1113.35 492.67" fill="none" opacity="1" stroke="#ff0000" stroke-linecap="butt" stroke-linejoin="miter" stroke-width="1.5"/>
<path d="" fill="none" opacity="1" stroke="#ff0000" stroke-linecap="butt" stroke-linejoin="miter" stroke-width="1.5"/>
<path d="M1442.76 256.66L1565.2 197.46" fill="none" opacity="1" stroke="#ff0000" stroke-linecap="butt" stroke-linejoin="miter" stroke-width="1.5"/>
<path d="M1442.76 256.66L1596.77 393.11" fill="none" opacity="1" stroke="#ff0000" stroke-linecap="butt" stroke-linejoin="miter" stroke-width="1.5"/>
<path d="" fill="none" opacity="1" stroke="#ff0000" stroke-linecap="butt" stroke-linejoin="miter" stroke-width="1.5"/>
<path d="M1429.03 518.31L1415.04 641.23" fill="none" opacity="1" stroke="#ff0000" stroke-linecap="butt" stroke-linejoin="miter" stroke-width="1.5"/>
<path d="M1429.03 518.31L1561.28 543.38" fill="none" opacity="1" stroke="#ff0000" stroke-linecap="butt" stroke-linejoin="miter" stroke-width="1.5"/>
<path d="" fill="none" opacity="1" stroke="#ff0000" stroke-linecap="butt" stroke-linejoin="miter" stroke-width="1.5"/>
<path d="M1415.04 641.23L1552.95 673.26" fill="none" opacity="1" stroke="#ff0000" stroke-linecap="butt" stroke-linejoin="miter" stroke-width="1.5"/>
<path d="" fill="none" opacity="1" stroke="#ff0000" stroke-linecap="butt" stroke-linejoin="miter" stroke-width="1.5"/>
<path d="M1586.06 91.35L1565.2 197.46" fill="none" opacity="1" stroke="#ff0000" stroke-linecap="butt" stroke-linejoin="miter" stroke-width="1.5"/>
<path d="" fill="none" opacity="1" stroke="#ff0000" stroke-linecap="butt" stroke-linejoin="miter" stroke-width="1.5"/>
<path d="M1565.2 197.46L1432.5 93" fill="none" opacity="1" stroke="#ff0000" stroke-linecap="butt" stroke-linejoin="miter" stroke-width="1.5"/>
<path d="" fill="none" opacity="1" stroke="#ff0000" stroke-linecap="butt" stroke-linejoin="miter" stroke-width="1.5"/>
<path d="M1596.77 393.11L1561.28 543.38" fill="none" opacity="1" stroke="#ff0000" stroke-linecap="butt" stroke-linejoin="miter" stroke-width="1.5"/>
<path d="M1596.77 393.11L1565.2 197.46" fill="none" opacity="1" stroke="#ff0000" stroke-linecap="butt" stroke-linejoin="miter" stroke-width="1.5"/>
<path d="M1596.77 393.11L1429.03 518.31" fill="none" opacity="1" stroke="#ff0000" stroke-linecap="butt" stroke-linejoin="miter" stroke-width="1.5"/>
<path d="" fill="none" opacity="1" stroke="#ff0000" stroke-linecap="butt" stroke-linejoin="miter" stroke-width="1.5"/>
<path d="M1552.95 673.26L1429.03 518.31" fill="none" opacity="1" stroke="#ff0000" stroke-linecap="butt" stroke-linejoin="miter" stroke-width="1.5"/>
<path d="M1552.95 673.26L1596.77 393.11" fill="none" opacity="1" stroke="#ff0000" stroke-linecap="butt" stroke-linejoin="miter" stroke-width="1.5"/>
<path d="M1552.95 673.26L1245.4 679.15" fill="none" opacity="1" stroke="#ff0000" stroke-linecap="butt" stroke-linejoin="miter" stroke-width="1.5"/>
<path d="M1552.95 673.26L1271.83 504.72" fill="none" opacity="1" stroke="#ff0000" stroke-linecap="butt" stroke-linejoin="miter" stroke-width="1.5"/>
<path d="M-84.02 493.28C-84.02 479.473-72.8271 468.28-59.02 468.28C-45.2129 468.28-34.02 479.473-34.02 493.28C-34.02 507.087-45.2129 518.28-59.02 518.28C-72.8271 518.28-84.02 507.087-84.02 493.28Z" fill="url(#RadialGradient)" fill-rule="nonzero" opacity="1" stroke="none"/>
<path d="M353.18 683.49C353.18 669.683 364.373 658.49 378.18 658.49C391.987 658.49 403.18 669.683 403.18 683.49C403.18 697.297 391.987 708.49 378.18 708.49C364.373 708.49 353.18 697.297 353.18 683.49Z" fill="url(#RadialGradient_2)" fill-rule="nonzero" opacity="1" stroke="none"/>
<path d="M966.4 243.33C966.4 229.523 977.593 218.33 991.4 218.33C1005.21 218.33 1016.4 229.523 1016.4 243.33C1016.4 257.137 1005.21 268.33 991.4 268.33C977.593 268.33 966.4 257.137 966.4 243.33Z" fill="url(#RadialGradient_3)" fill-rule="nonzero" opacity="1" stroke="none"/>
<path d="M959.26 364.16C959.26 350.353 970.453 339.16 984.26 339.16C998.067 339.16 1009.26 350.353 1009.26 364.16C1009.26 377.967 998.067 389.16 984.26 389.16C970.453 389.16 959.26 377.967 959.26 364.16Z" fill="url(#RadialGradient_4)" fill-rule="nonzero" opacity="1" stroke="none"/>
<path d="M1280.15-82.29C1280.15-96.0971 1291.34-107.29 1305.15-107.29C1318.96-107.29 1330.15-96.0971 1330.15-82.29C1330.15-68.4829 1318.96-57.29 1305.15-57.29C1291.34-57.29 1280.15-68.4829 1280.15-82.29Z" fill="url(#RadialGradient_5)" fill-rule="nonzero" opacity="1" stroke="none"/>
<path d="M1246.83 504.72C1246.83 490.913 1258.02 479.72 1271.83 479.72C1285.64 479.72 1296.83 490.913 1296.83 504.72C1296.83 518.527 1285.64 529.72 1271.83 529.72C1258.02 529.72 1246.83 518.527 1246.83 504.72Z" fill="url(#RadialGradient_6)" fill-rule="nonzero" opacity="1" stroke="none"/>
<path d="M1370.65-111.12C1370.65-124.927 1381.84-136.12 1395.65-136.12C1409.46-136.12 1420.65-124.927 1420.65-111.12C1420.65-97.3129 1409.46-86.12 1395.65-86.12C1381.84-86.12 1370.65-97.3129 1370.65-111.12Z" fill="url(#RadialGradient_7)" fill-rule="nonzero" opacity="1" stroke="none"/>
<path d="M1407.5 93C1407.5 79.1929 1418.69 68 1432.5 68C1446.31 68 1457.5 79.1929 1457.5 93C1457.5 106.807 1446.31 118 1432.5 118C1418.69 118 1407.5 106.807 1407.5 93Z" fill="url(#RadialGradient_8)" fill-rule="nonzero" opacity="1" stroke="none"/>
<path d="M1414.06 360.21C1414.06 346.403 1425.25 335.21 1439.06 335.21C1452.87 335.21 1464.06 346.403 1464.06 360.21C1464.06 374.017 1452.87 385.21 1439.06 385.21C1425.25 385.21 1414.06 374.017 1414.06 360.21Z" fill="url(#RadialGradient_9)" fill-rule="nonzero" opacity="1" stroke="none"/>
<path d="M1520.36-43.76C1520.36-57.5671 1531.55-68.76 1545.36-68.76C1559.17-68.76 1570.36-57.5671 1570.36-43.76C1570.36-29.9529 1559.17-18.76 1545.36-18.76C1531.55-18.76 1520.36-29.9529 1520.36-43.76Z" fill="url(#RadialGradient_10)" fill-rule="nonzero" opacity="1" stroke="none"/>
<path d="M1536.28 543.38C1536.28 529.573 1547.47 518.38 1561.28 518.38C1575.09 518.38 1586.28 529.573 1586.28 543.38C1586.28 557.187 1575.09 568.38 1561.28 568.38C1547.47 568.38 1536.28 557.187 1536.28 543.38Z" fill="url(#RadialGradient_11)" fill-rule="nonzero" opacity="1" stroke="none"/>
<path d="M-58.18 648.43C-58.18 645.669-55.9414 643.43-53.18 643.43C-50.4186 643.43-48.18 645.669-48.18 648.43C-48.18 651.191-50.4186 653.43-53.18 653.43C-55.9414 653.43-58.18 651.191-58.18 648.43Z" fill="#e1e2e5" fill-rule="nonzero" opacity="1" stroke="none"/>
<path d="M106.49 509.62C106.49 506.859 108.729 504.62 111.49 504.62C114.251 504.62 116.49 506.859 116.49 509.62C116.49 512.381 114.251 514.62 111.49 514.62C108.729 514.62 106.49 512.381 106.49 509.62Z" fill="#e1e2e5" fill-rule="nonzero" opacity="1" stroke="none"/>
<path d="M50.47 701.94C50.47 699.179 52.7086 696.94 55.47 696.94C58.2314 696.94 60.47 699.179 60.47 701.94C60.47 704.701 58.2314 706.94 55.47 706.94C52.7086 706.94 50.47 704.701 50.47 701.94Z" fill="#e1e2e5" fill-rule="nonzero" opacity="1" stroke="none"/>
<path d="M212.63 560.39C212.63 557.629 214.869 555.39 217.63 555.39C220.391 555.39 222.63 557.629 222.63 560.39C222.63 563.151 220.391 565.39 217.63 565.39C214.869 565.39 212.63 563.151 212.63 560.39Z" fill="#e1e2e5" fill-rule="nonzero" opacity="1" stroke="none"/>
<path d="M187.01 643.8C187.01 641.039 189.249 638.8 192.01 638.8C194.771 638.8 197.01 641.039 197.01 643.8C197.01 646.561 194.771 648.8 192.01 648.8C189.249 648.8 187.01 646.561 187.01 643.8Z" fill="#e1e2e5" fill-rule="nonzero" opacity="1" stroke="none"/>
<path d="M350.57 551.17C350.57 548.409 352.809 546.17 355.57 546.17C358.331 546.17 360.57 548.409 360.57 551.17C360.57 553.931 358.331 556.17 355.57 556.17C352.809 556.17 350.57 553.931 350.57 551.17Z" fill="#e1e2e5" fill-rule="nonzero" opacity="1" stroke="none"/>
<path d="M486.33 555.64C486.33 552.879 488.569 550.64 491.33 550.64C494.091 550.64 496.33 552.879 496.33 555.64C496.33 558.401 494.091 560.64 491.33 560.64C488.569 560.64 486.33 558.401 486.33 555.64Z" fill="#e1e2e5" fill-rule="nonzero" opacity="1" stroke="none"/>
<path d="M542.39 704.46C542.39 701.699 544.629 699.46 547.39 699.46C550.151 699.46 552.39 701.699 552.39 704.46C552.39 707.221 550.151 709.46 547.39 709.46C544.629 709.46 542.39 707.221 542.39 704.46Z" fill="#e1e2e5" fill-rule="nonzero" opacity="1" stroke="none"/>
<path d="M681.61 391.07C681.61 388.309 683.849 386.07 686.61 386.07C689.371 386.07 691.61 388.309 691.61 391.07C691.61 393.831 689.371 396.07 686.61 396.07C683.849 396.07 681.61 393.831 681.61 391.07Z" fill="#e1e2e5" fill-rule="nonzero" opacity="1" stroke="none"/>
<path d="M683.66 536.21C683.66 533.449 685.899 531.21 688.66 531.21C691.421 531.21 693.66 533.449 693.66 536.21C693.66 538.971 691.421 541.21 688.66 541.21C685.899 541.21 683.66 538.971 683.66 536.21Z" fill="#e1e2e5" fill-rule="nonzero" opacity="1" stroke="none"/>
<path d="M687.55 676.31C687.55 673.549 689.789 671.31 692.55 671.31C695.311 671.31 697.55 673.549 697.55 676.31C697.55 679.071 695.311 681.31 692.55 681.31C689.789 681.31 687.55 679.071 687.55 676.31Z" fill="#e1e2e5" fill-rule="nonzero" opacity="1" stroke="none"/>
<path d="M812.12 345.04C812.12 342.279 814.359 340.04 817.12 340.04C819.881 340.04 822.12 342.279 822.12 345.04C822.12 347.801 819.881 350.04 817.12 350.04C814.359 350.04 812.12 347.801 812.12 345.04Z" fill="#e1e2e5" fill-rule="nonzero" opacity="1" stroke="none"/>
<path d="M819.36 538.67C819.36 535.909 821.599 533.67 824.36 533.67C827.121 533.67 829.36 535.909 829.36 538.67C829.36 541.431 827.121 543.67 824.36 543.67C821.599 543.67 819.36 541.431 819.36 538.67Z" fill="#e1e2e5" fill-rule="nonzero" opacity="1" stroke="none"/>
<path d="M797.06 699.65C797.06 696.889 799.299 694.65 802.06 694.65C804.821 694.65 807.06 696.889 807.06 699.65C807.06 702.411 804.821 704.65 802.06 704.65C799.299 704.65 797.06 702.411 797.06 699.65Z" fill="#e1e2e5" fill-rule="nonzero" opacity="1" stroke="none"/>
<path d="M985.08 553.39C985.08 550.629 987.319 548.39 990.08 548.39C992.841 548.39 995.08 550.629 995.08 553.39C995.08 556.151 992.841 558.39 990.08 558.39C987.319 558.39 985.08 556.151 985.08 553.39Z" fill="#e1e2e5" fill-rule="nonzero" opacity="1" stroke="none"/>
<path d="M970.32 698.49C970.32 695.729 972.559 693.49 975.32 693.49C978.081 693.49 980.32 695.729 980.32 698.49C980.32 701.251 978.081 703.49 975.32 703.49C972.559 703.49 970.32 701.251 970.32 698.49Z" fill="#e1e2e5" fill-rule="nonzero" opacity="1" stroke="none"/>
<path d="M1138.99 193.48C1138.99 190.719 1141.23 188.48 1143.99 188.48C1146.75 188.48 1148.99 190.719 1148.99 193.48C1148.99 196.241 1146.75 198.48 1143.99 198.48C1141.23 198.48 1138.99 196.241 1138.99 193.48Z" fill="#e1e2e5" fill-rule="nonzero" opacity="1" stroke="none"/>
<path d="M1123.65 347.05C1123.65 344.289 1125.89 342.05 1128.65 342.05C1131.41 342.05 1133.65 344.289 1133.65 347.05C1133.65 349.811 1131.41 352.05 1128.65 352.05C1125.89 352.05 1123.65 349.811 1123.65 347.05Z" fill="#e1e2e5" fill-rule="nonzero" opacity="1" stroke="none"/>
<path d="M1108.35 492.67C1108.35 489.909 1110.59 487.67 1113.35 487.67C1116.11 487.67 1118.35 489.909 1118.35 492.67C1118.35 495.431 1116.11 497.67 1113.35 497.67C1110.59 497.67 1108.35 495.431 1108.35 492.67Z" fill="#e1e2e5" fill-rule="nonzero" opacity="1" stroke="none"/>
<path d="M1123.99 663.06C1123.99 660.299 1126.23 658.06 1128.99 658.06C1131.75 658.06 1133.99 660.299 1133.99 663.06C1133.99 665.821 1131.75 668.06 1128.99 668.06C1126.23 668.06 1123.99 665.821 1123.99 663.06Z" fill="#e1e2e5" fill-rule="nonzero" opacity="1" stroke="none"/>
<path d="M1289.38 73.85C1289.38 71.0886 1291.62 68.85 1294.38 68.85C1297.14 68.85 1299.38 71.0886 1299.38 73.85C1299.38 76.6114 1297.14 78.85 1294.38 78.85C1291.62 78.85 1289.38 76.6114 1289.38 73.85Z" fill="#e1e2e5" fill-rule="nonzero" opacity="1" stroke="none"/>
<path d="M1255.05 196.08C1255.05 193.319 1257.29 191.08 1260.05 191.08C1262.81 191.08 1265.05 193.319 1265.05 196.08C1265.05 198.841 1262.81 201.08 1260.05 201.08C1257.29 201.08 1255.05 198.841 1255.05 196.08Z" fill="#e1e2e5" fill-rule="nonzero" opacity="1" stroke="none"/>
<path d="M1253.87 361.5C1253.87 358.739 1256.11 356.5 1258.87 356.5C1261.63 356.5 1263.87 358.739 1263.87 361.5C1263.87 364.261 1261.63 366.5 1258.87 366.5C1256.11 366.5 1253.87 364.261 1253.87 361.5Z" fill="#e1e2e5" fill-rule="nonzero" opacity="1" stroke="none"/>
<path d="M1240.4 679.15C1240.4 676.389 1242.64 674.15 1245.4 674.15C1248.16 674.15 1250.4 676.389 1250.4 679.15C1250.4 681.911 1248.16 684.15 1245.4 684.15C1242.64 684.15 1240.4 681.911 1240.4 679.15Z" fill="#e1e2e5" fill-rule="nonzero" opacity="1" stroke="none"/>
<path d="M1437.76 256.66C1437.76 253.899 1440 251.66 1442.76 251.66C1445.52 251.66 1447.76 253.899 1447.76 256.66C1447.76 259.421 1445.52 261.66 1442.76 261.66C1440 261.66 1437.76 259.421 1437.76 256.66Z" fill="#e1e2e5" fill-rule="nonzero" opacity="1" stroke="none"/>
<path d="M1424.03 518.31C1424.03 515.549 1426.27 513.31 1429.03 513.31C1431.79 513.31 1434.03 515.549 1434.03 518.31C1434.03 521.071 1431.79 523.31 1429.03 523.31C1426.27 523.31 1424.03 521.071 1424.03 518.31Z" fill="#e1e2e5" fill-rule="nonzero" opacity="1" stroke="none"/>
<path d="M1410.04 641.23C1410.04 638.469 1412.28 636.23 1415.04 636.23C1417.8 636.23 1420.04 638.469 1420.04 641.23C1420.04 643.991 1417.8 646.23 1415.04 646.23C1412.28 646.23 1410.04 643.991 1410.04 641.23Z" fill="#e1e2e5" fill-rule="nonzero" opacity="1" stroke="none"/>
<path d="M1581.06 91.35C1581.06 88.5886 1583.3 86.35 1586.06 86.35C1588.82 86.35 1591.06 88.5886 1591.06 91.35C1591.06 94.1114 1588.82 96.35 1586.06 96.35C1583.3 96.35 1581.06 94.1114 1581.06 91.35Z" fill="#e1e2e5" fill-rule="nonzero" opacity="1" stroke="none"/>
<path d="M1560.2 197.46C1560.2 194.699 1562.44 192.46 1565.2 192.46C1567.96 192.46 1570.2 194.699 1570.2 197.46C1570.2 200.221 1567.96 202.46 1565.2 202.46C1562.44 202.46 1560.2 200.221 1560.2 197.46Z" fill="#e1e2e5" fill-rule="nonzero" opacity="1" stroke="none"/>
<path d="M1591.77 393.11C1591.77 390.349 1594.01 388.11 1596.77 388.11C1599.53 388.11 1601.77 390.349 1601.77 393.11C1601.77 395.871 1599.53 398.11 1596.77 398.11C1594.01 398.11 1591.77 395.871 1591.77 393.11Z" fill="#e1e2e5" fill-rule="nonzero" opacity="1" stroke="none"/>
<path d="M1547.95 673.26C1547.95 670.499 1550.19 668.26 1552.95 668.26C1555.71 668.26 1557.95 670.499 1557.95 673.26C1557.95 676.021 1555.71 678.26 1552.95 678.26C1550.19 678.26 1547.95 676.021 1547.95 673.26Z" fill="#e1e2e5" fill-rule="nonzero" opacity="1" stroke="none"/>
</g>
<g fill="#adadad" opacity="1" stroke="none">
<path clip-path="url(#TextBounds)" d="M131.684 93.6195L147.944 93.6195L147.944 78.8734L153.633 78.8734L153.633 116.569L147.944 116.569L147.944 98.9662L131.684 98.9662L131.684 116.569L125.996 116.569L125.996 78.8734L131.684 78.8734L131.684 93.6195Z"/>
<path clip-path="url(#TextBounds)" d="M168.354 78.8734L168.354 116.569L162.666 116.569L162.666 78.8734L168.354 78.8734Z"/>
<path clip-path="url(#TextBounds)" d="M179.756 109.513L184.638 111.417L177.68 125.358L173.969 123.82L179.756 109.513Z"/>
<path clip-path="url(#TextBounds)" d="M213.96 78.8734L213.96 116.569L208.271 116.569L208.271 78.8734L213.96 78.8734Z"/>
<path clip-path="url(#TextBounds)" d="M227.119 77.2377L232.002 79.142L225.044 93.1068L221.333 91.5687L227.119 77.2377Z"/>
<path clip-path="url(#TextBounds)" d="M238.032 116.569L245.967 76.0414L258.906 105.338L272.309 76.0414L279.438 116.569L273.603 116.569L269.966 93.8148L258.808 118.302L247.969 93.7904L243.916 116.569L238.032 116.569Z"/>
<path clip-path="url(#TextBounds)" d="M308.54 101.261L308.54 116.569L302.851 116.569L302.851 78.8734L309.297 78.8734C312.454 78.8734 314.839 79.0932 316.45 79.5326C318.078 79.9721 319.51 80.8021 320.747 82.0228C322.912 84.1387 323.994 86.808 323.994 90.0307C323.994 93.4812 322.838 96.2155 320.527 98.2338C318.216 100.252 315.099 101.261 311.177 101.261L308.54 101.261ZM308.54 95.9877L310.664 95.9877C315.888 95.9877 318.501 93.9776 318.501 89.9574C318.501 86.0674 315.807 84.1224 310.42 84.1224L308.54 84.1224L308.54 95.9877Z"/>
<path clip-path="url(#TextBounds)" d="M335.542 78.8734L335.542 116.569L329.853 116.569L329.853 78.8734L335.542 78.8734Z"/>
<path clip-path="url(#TextBounds)" d="M365.4 84.2201L350.288 84.2201L350.288 93.2777L364.961 93.2777L364.961 98.6244L350.288 98.6244L350.288 111.222L365.4 111.222L365.4 116.569L344.599 116.569L344.599 78.8734L365.4 78.8734L365.4 84.2201Z"/>
<path clip-path="url(#TextBounds)" d="M385.639 100.504L397.309 116.569L390.351 116.569L379.585 101.139L378.559 101.139L378.559 116.569L372.871 116.569L372.871 78.8734L379.536 78.8734C384.516 78.8734 388.113 79.8093 390.327 81.681C392.768 83.7644 393.989 86.515 393.989 89.933C393.989 92.6023 393.224 94.8972 391.694 96.8178C390.164 98.7383 388.146 99.9672 385.639 100.504ZM378.559 96.183L380.366 96.183C385.753 96.183 388.447 94.1241 388.447 90.0062C388.447 86.1488 385.827 84.2201 380.586 84.2201L378.559 84.2201L378.559 96.183Z"/>
<path clip-path="url(#TextBounds)" d="M415.742 100.504L427.412 116.569L420.454 116.569L409.687 101.139L408.662 101.139L408.662 116.569L402.973 116.569L402.973 78.8734L409.638 78.8734C414.619 78.8734 418.216 79.8093 420.429 81.681C422.871 83.7644 424.092 86.515 424.092 89.933C424.092 92.6023 423.327 94.8972 421.797 96.8178C420.267 98.7383 418.248 99.9672 415.742 100.504ZM408.662 96.183L410.469 96.183C415.856 96.183 418.55 94.1241 418.55 90.0062C418.55 86.1488 415.929 84.2201 410.688 84.2201L408.662 84.2201L408.662 96.183Z"/>
<path clip-path="url(#TextBounds)" d="M453.877 84.2201L438.764 84.2201L438.764 93.2777L453.437 93.2777L453.437 98.6244L438.764 98.6244L438.764 111.222L453.877 111.222L453.877 116.569L433.076 116.569L433.076 78.8734L453.877 78.8734L453.877 84.2201Z"/>
<path clip-path="url(#TextBounds)" d="M489.546 100.504L501.216 116.569L494.258 116.569L483.491 101.139L482.466 101.139L482.466 116.569L476.777 116.569L476.777 78.8734L483.442 78.8734C488.423 78.8734 492.02 79.8093 494.233 81.681C496.675 83.7644 497.895 86.515 497.895 89.933C497.895 92.6023 497.13 94.8972 495.6 96.8178C494.07 98.7383 492.052 99.9672 489.546 100.504ZM482.466 96.183L484.272 96.183C489.66 96.183 492.353 94.1241 492.353 90.0062C492.353 86.1488 489.733 84.2201 484.492 84.2201L482.466 84.2201L482.466 96.183Z"/>
<path clip-path="url(#TextBounds)" d="M504.145 97.5502C504.145 92.2442 506.09 87.6869 509.98 83.8783C513.854 80.0697 518.509 78.1654 523.945 78.1654C529.316 78.1654 533.922 80.086 537.763 83.9271C541.621 87.7683 543.55 92.3825 543.55 97.7699C543.55 103.19 541.613 107.788 537.739 111.564C533.849 115.356 529.153 117.252 523.652 117.252C518.786 117.252 514.415 115.568 510.542 112.199C506.277 108.471 504.145 103.589 504.145 97.5502ZM509.883 97.6234C509.883 101.79 511.282 105.216 514.082 107.902C516.865 110.587 520.08 111.93 523.725 111.93C527.68 111.93 531.017 110.563 533.735 107.829C536.453 105.062 537.812 101.692 537.812 97.7211C537.812 93.7009 536.469 90.3318 533.784 87.6137C531.115 84.8793 527.811 83.5121 523.872 83.5121C519.949 83.5121 516.637 84.8793 513.935 87.6137C511.233 90.3155 509.883 93.6521 509.883 97.6234Z"/>
<path clip-path="url(#TextBounds)" d="M578.559 80.8998L578.559 87.6381C575.272 84.8874 571.87 83.5121 568.354 83.5121C564.481 83.5121 561.217 84.9037 558.564 87.6869C555.895 90.4538 554.56 93.8392 554.56 97.8432C554.56 101.798 555.895 105.135 558.564 107.853C561.233 110.571 564.505 111.93 568.379 111.93C570.381 111.93 572.081 111.605 573.481 110.954C574.262 110.628 575.072 110.189 575.91 109.635C576.749 109.082 577.632 108.414 578.559 107.633L578.559 114.494C575.304 116.333 571.886 117.252 568.305 117.252C562.918 117.252 558.32 115.372 554.511 111.613C550.719 107.82 548.823 103.247 548.823 97.892C548.823 93.0905 550.41 88.8099 553.584 85.0502C557.49 80.4441 562.544 78.141 568.745 78.141C572.13 78.141 575.402 79.0606 578.559 80.8998Z"/>
<path clip-path="url(#TextBounds)" d="M592.475 93.6195L608.735 93.6195L608.735 78.8734L614.424 78.8734L614.424 116.569L608.735 116.569L608.735 98.9662L592.475 98.9662L592.475 116.569L586.787 116.569L586.787 78.8734L592.475 78.8734L592.475 93.6195Z"/>
<path clip-path="url(#TextBounds)" d="M644.258 84.2201L629.145 84.2201L629.145 93.2777L643.818 93.2777L643.818 98.6244L629.145 98.6244L629.145 111.222L644.258 111.222L644.258 116.569L623.457 116.569L623.457 78.8734L644.258 78.8734L644.258 84.2201Z"/>
<path clip-path="url(#TextBounds)" d="M662.129 84.2201L662.129 116.569L656.44 116.569L656.44 84.2201L647.773 84.2201L647.773 78.8734L670.771 78.8734L670.771 84.2201L662.129 84.2201Z"/>
</g>
<g fill="#adadad" opacity="1" stroke="none">
<path clip-path="url(#TextBounds_2)" d="M148.348 172.95L153.426 147.013L161.708 165.763L170.286 147.013L174.848 172.95L171.114 172.95L168.786 158.388L161.645 174.06L154.708 158.372L152.114 172.95L148.348 172.95Z"/>
<path clip-path="url(#TextBounds_2)" d="M194.129 167.091L183.801 167.091L181.114 172.95L177.192 172.95L189.129 147.31L200.645 172.95L196.661 172.95L194.129 167.091ZM192.645 163.669L189.067 155.466L185.317 163.669L192.645 163.669Z"/>
<path clip-path="url(#TextBounds_2)" d="M220.364 150.122L220.364 154.435C218.26 152.674 216.083 151.794 213.833 151.794C211.353 151.794 209.265 152.685 207.567 154.466C205.859 156.237 205.004 158.404 205.004 160.966C205.004 163.497 205.859 165.633 207.567 167.372C209.275 169.112 211.369 169.982 213.848 169.982C215.129 169.982 216.218 169.773 217.114 169.357C217.614 169.148 218.132 168.867 218.669 168.513C219.205 168.159 219.77 167.732 220.364 167.232L220.364 171.622C218.28 172.799 216.093 173.388 213.801 173.388C210.353 173.388 207.411 172.185 204.973 169.779C202.546 167.351 201.333 164.424 201.333 160.997C201.333 157.924 202.348 155.185 204.379 152.779C206.879 149.831 210.114 148.357 214.083 148.357C216.249 148.357 218.343 148.945 220.364 150.122Z"/>
<path clip-path="url(#TextBounds_2)" d="M229.27 158.263L239.676 158.263L239.676 148.825L243.317 148.825L243.317 172.95L239.676 172.95L239.676 161.685L229.27 161.685L229.27 172.95L225.629 172.95L225.629 148.825L229.27 148.825L229.27 158.263Z"/>
<path clip-path="url(#TextBounds_2)" d="M252.739 148.825L252.739 172.95L249.098 172.95L249.098 148.825L252.739 148.825Z"/>
<path clip-path="url(#TextBounds_2)" d="M258.536 172.95L258.536 147.185L276.129 165.591L276.129 148.825L279.77 148.825L279.77 174.419L262.176 156.06L262.176 172.95L258.536 172.95Z"/>
<path clip-path="url(#TextBounds_2)" d="M298.864 152.247L289.192 152.247L289.192 158.044L298.583 158.044L298.583 161.466L289.192 161.466L289.192 169.529L298.864 169.529L298.864 172.95L285.551 172.95L285.551 148.825L298.864 148.825L298.864 152.247Z"/>
<path clip-path="url(#TextBounds_2)" d="M317.161 148.825L317.161 169.529L324.254 169.529L324.254 172.95L313.52 172.95L313.52 148.825L317.161 148.825Z"/>
<path clip-path="url(#TextBounds_2)" d="M341.02 152.247L331.348 152.247L331.348 158.044L340.739 158.044L340.739 161.466L331.348 161.466L331.348 169.529L341.02 169.529L341.02 172.95L327.708 172.95L327.708 148.825L341.02 148.825L341.02 152.247Z"/>
<path clip-path="url(#TextBounds_2)" d="M359.973 167.091L349.645 167.091L346.958 172.95L343.036 172.95L354.973 147.31L366.489 172.95L362.504 172.95L359.973 167.091ZM358.489 163.669L354.911 155.466L351.161 163.669L358.489 163.669Z"/>
<path clip-path="url(#TextBounds_2)" d="M377.676 162.669L385.145 172.95L380.692 172.95L373.801 163.075L373.145 163.075L373.145 172.95L369.504 172.95L369.504 148.825L373.77 148.825C376.958 148.825 379.26 149.424 380.676 150.622C382.239 151.956 383.02 153.716 383.02 155.904C383.02 157.612 382.53 159.081 381.551 160.31C380.572 161.539 379.28 162.325 377.676 162.669ZM373.145 159.904L374.301 159.904C377.749 159.904 379.473 158.586 379.473 155.95C379.473 153.482 377.796 152.247 374.442 152.247L373.145 152.247L373.145 159.904Z"/>
<path clip-path="url(#TextBounds_2)" d="M388.77 172.95L388.77 147.185L406.364 165.591L406.364 148.825L410.004 148.825L410.004 174.419L392.411 156.06L392.411 172.95L388.77 172.95Z"/>
<path clip-path="url(#TextBounds_2)" d="M419.426 148.825L419.426 172.95L415.786 172.95L415.786 148.825L419.426 148.825Z"/>
<path clip-path="url(#TextBounds_2)" d="M425.223 172.95L425.223 147.185L442.817 165.591L442.817 148.825L446.458 148.825L446.458 174.419L428.864 156.06L428.864 172.95L425.223 172.95Z"/>
<path clip-path="url(#TextBounds_2)" d="M464.895 160.388L474.864 160.388L474.864 161.185C474.864 162.997 474.65 164.601 474.223 165.997C473.807 167.289 473.103 168.497 472.114 169.622C469.874 172.143 467.025 173.404 463.567 173.404C460.192 173.404 457.301 172.185 454.895 169.747C452.489 167.299 451.286 164.362 451.286 160.935C451.286 157.435 452.51 154.466 454.958 152.029C457.405 149.581 460.385 148.357 463.895 148.357C465.78 148.357 467.541 148.742 469.176 149.513C470.739 150.284 472.275 151.534 473.786 153.263L471.192 155.747C469.213 153.112 466.801 151.794 463.958 151.794C461.405 151.794 459.265 152.674 457.536 154.435C455.807 156.164 454.942 158.331 454.942 160.935C454.942 163.622 455.905 165.836 457.833 167.575C459.635 169.19 461.588 169.997 463.692 169.997C465.484 169.997 467.093 169.393 468.52 168.185C469.947 166.966 470.744 165.508 470.911 163.81L464.895 163.81L464.895 160.388Z"/>
<path clip-path="url(#TextBounds_2)" d="M502.629 152.247L492.958 152.247L492.958 158.044L502.348 158.044L502.348 161.466L492.958 161.466L492.958 169.529L502.629 169.529L502.629 172.95L489.317 172.95L489.317 148.825L502.629 148.825L502.629 152.247Z"/>
<path clip-path="url(#TextBounds_2)" d="M507.411 172.95L507.411 147.185L525.004 165.591L525.004 148.825L528.645 148.825L528.645 174.419L511.051 156.06L511.051 172.95L507.411 172.95Z"/>
<path clip-path="url(#TextBounds_2)" d="M547.083 160.388L557.051 160.388L557.051 161.185C557.051 162.997 556.838 164.601 556.411 165.997C555.994 167.289 555.291 168.497 554.301 169.622C552.062 172.143 549.213 173.404 545.754 173.404C542.379 173.404 539.489 172.185 537.083 169.747C534.676 167.299 533.473 164.362 533.473 160.935C533.473 157.435 534.697 154.466 537.145 152.029C539.593 149.581 542.572 148.357 546.083 148.357C547.968 148.357 549.728 148.742 551.364 149.513C552.926 150.284 554.463 151.534 555.973 153.263L553.379 155.747C551.4 153.112 548.989 151.794 546.145 151.794C543.593 151.794 541.452 152.674 539.723 154.435C537.994 156.164 537.129 158.331 537.129 160.935C537.129 163.622 538.093 165.836 540.02 167.575C541.822 169.19 543.775 169.997 545.879 169.997C547.671 169.997 549.28 169.393 550.708 168.185C552.135 166.966 552.932 165.508 553.098 163.81L547.083 163.81L547.083 160.388Z"/>
<path clip-path="url(#TextBounds_2)" d="M565.27 148.825L565.27 172.95L561.629 172.95L561.629 148.825L565.27 148.825Z"/>
<path clip-path="url(#TextBounds_2)" d="M571.067 172.95L571.067 147.185L588.661 165.591L588.661 148.825L592.301 148.825L592.301 174.419L574.708 156.06L574.708 172.95L571.067 172.95Z"/>
<path clip-path="url(#TextBounds_2)" d="M611.395 152.247L601.723 152.247L601.723 158.044L611.114 158.044L611.114 161.466L601.723 161.466L601.723 169.529L611.395 169.529L611.395 172.95L598.083 172.95L598.083 148.825L611.395 148.825L611.395 152.247Z"/>
<path clip-path="url(#TextBounds_2)" d="M629.489 152.247L619.817 152.247L619.817 158.044L629.208 158.044L629.208 161.466L619.817 161.466L619.817 169.529L629.489 169.529L629.489 172.95L616.176 172.95L616.176 148.825L629.489 148.825L629.489 152.247Z"/>
<path clip-path="url(#TextBounds_2)" d="M642.442 162.669L649.911 172.95L645.458 172.95L638.567 163.075L637.911 163.075L637.911 172.95L634.27 172.95L634.27 148.825L638.536 148.825C641.723 148.825 644.025 149.424 645.442 150.622C647.004 151.956 647.786 153.716 647.786 155.904C647.786 157.612 647.296 159.081 646.317 160.31C645.338 161.539 644.046 162.325 642.442 162.669ZM637.911 159.904L639.067 159.904C642.515 159.904 644.239 158.586 644.239 155.95C644.239 153.482 642.562 152.247 639.208 152.247L637.911 152.247L637.911 159.904Z"/>
</g>
</g>
</svg>
